<?xml version="1.0" standalone="no"?>
<!DOCTYPE svg PUBLIC "-//W3C//DTD SVG 20010904//EN"
 "http://www.w3.org/TR/2001/REC-SVG-20010904/DTD/svg10.dtd">
<svg version="1.0" xmlns="http://www.w3.org/2000/svg"
 width="568.000000pt" height="568.000000pt" viewBox="0 0 568.000000 568.000000"
 preserveAspectRatio="xMidYMid meet">
<metadata>
Created by potrace 1.14, written by Peter Selinger 2001-2017
</metadata>
<g transform="translate(0.000000,568.000000) scale(0.100000,-0.100000)"
fill="#000000" stroke="none">
<path d="M2055 5590 c-5 -17 -9 -19 -15 -10 -11 18 -59 20 -52 2 2 -8 13 -11
23 -9 11 3 16 1 13 -4 -3 -6 -15 -9 -26 -7 -12 2 -23 -3 -26 -11 -2 -8 0 -11
5 -8 5 3 10 -3 10 -14 1 -12 -5 -19 -15 -19 -15 0 -15 2 -2 10 13 8 12 10 -2
10 -20 0 -24 -15 -7 -25 6 -4 8 -14 5 -22 -4 -9 -2 -11 6 -7 6 4 8 3 4 -4 -3
-6 2 -15 11 -21 11 -6 13 -11 5 -11 -7 0 -10 -5 -6 -12 4 -7 3 -8 -4 -4 -7 4
-12 1 -12 -8 0 -8 -8 -19 -17 -24 -21 -12 -25 -38 -7 -40 8 -1 21 -3 29 -4 20
-2 19 -14 -1 -22 -8 -3 -13 -2 -10 2 3 5 -2 9 -10 9 -10 0 -11 -4 -4 -11 12
-12 13 -29 1 -22 -5 3 -12 -1 -15 -10 -8 -21 -8 -24 5 -24 5 0 7 5 4 10 -8 13
16 13 35 -1 13 -9 12 -10 -2 -5 -22 7 -24 -10 -3 -21 13 -8 13 -12 -5 -31 -22
-23 -27 -37 -8 -26 7 4 8 3 4 -5 -6 -9 -11 -9 -22 0 -12 9 -13 9 -9 -2 4 -10
-2 -15 -15 -16 -12 -1 -18 2 -14 9 4 7 2 8 -4 4 -6 -4 -9 -13 -6 -21 4 -8 11
-12 17 -8 6 4 25 8 42 10 l30 2 -30 -13 c-16 -7 -34 -14 -40 -15 -5 -2 -18 -7
-29 -13 -12 -7 -16 -7 -12 0 3 6 2 13 -4 17 -5 3 -10 1 -10 -4 0 -6 -7 -11
-15 -11 -9 0 -12 -6 -9 -15 4 -8 11 -12 17 -8 6 4 7 1 2 -7 -6 -10 -11 -10
-20 3 -15 20 -29 22 -22 4 3 -9 -2 -13 -16 -12 -12 1 -20 6 -18 11 1 5 7 8 13
6 5 -1 6 3 2 9 -5 8 -3 9 6 4 9 -6 11 -4 5 5 -5 8 -4 11 3 7 13 -9 42 2 42 14
0 6 -7 6 -17 1 -10 -5 -26 -8 -36 -7 -9 2 -15 0 -12 -5 3 -4 -2 -13 -10 -20
-11 -9 -19 -9 -35 3 -11 7 -17 18 -12 23 4 5 3 5 -3 1 -6 -5 -11 -13 -11 -18
-1 -5 -2 -13 -3 -18 0 -6 -10 -8 -22 -6 -18 4 -19 2 -8 -11 12 -14 15 -14 30
5 18 21 35 29 24 11 -4 -6 -1 -19 7 -28 12 -15 11 -16 -5 -3 -9 8 -21 11 -24
7 -4 -4 -1 -11 7 -16 24 -15 2 -11 -30 5 -27 14 -29 14 -36 -7 -6 -20 -7 -21
-17 -2 -13 24 -27 34 -47 33 -11 0 -10 -2 3 -8 10 -4 18 -11 17 -15 -1 -5 4
-13 12 -18 9 -7 8 -8 -6 -4 -14 5 -17 2 -12 -11 4 -12 0 -11 -10 4 -15 21 -18
22 -45 7 -27 -13 -33 -12 -30 9 1 4 -7 3 -17 -2 -13 -7 -22 -7 -30 1 -7 7 -12
8 -12 4 0 -5 -8 -2 -17 5 -15 11 -16 11 -6 0 6 -7 9 -21 6 -30 -3 -10 -2 -12
4 -6 9 12 47 14 58 4 3 -4 -2 -6 -12 -6 -34 0 -44 -3 -39 -11 9 -15 -55 -6
-65 9 -8 12 -10 12 -8 -1 3 -28 -1 -41 -10 -35 -5 3 -12 1 -16 -5 -3 -5 -1
-10 5 -10 6 0 8 -5 4 -11 -5 -8 -10 -6 -16 5 -12 21 -29 11 -22 -12 5 -14 3
-14 -6 2 -10 14 -10 20 1 27 7 4 17 5 21 3 4 -3 8 0 8 5 0 13 -10 14 -30 1 -9
-6 -17 -5 -23 3 -5 7 -6 1 -3 -15 7 -30 -8 -45 -28 -29 -7 6 -16 8 -20 4 -4
-4 -4 0 -1 9 4 9 2 19 -4 23 -6 3 -9 0 -5 -8 4 -10 -2 -14 -22 -13 -19 1 -28
-4 -30 -17 -2 -17 -1 -17 21 -3 20 13 24 13 29 1 3 -10 0 -12 -11 -8 -10 4
-14 2 -10 -4 4 -6 -6 -9 -23 -8 -20 1 -30 -3 -30 -12 0 -8 5 -11 12 -7 6 4 8
3 4 -4 -3 -6 -18 -9 -32 -6 -14 3 -23 1 -20 -5 3 -5 -2 -15 -12 -22 -16 -13
-16 -13 -2 5 8 11 14 22 14 25 -3 15 9 30 20 24 6 -3 7 -2 3 2 -14 16 -36 14
-30 -3 4 -10 2 -13 -6 -8 -6 4 -10 4 -9 -1 4 -14 -13 -53 -23 -53 -5 0 -9 4
-9 8 0 4 -10 8 -22 9 -22 2 -22 1 -4 -13 11 -8 16 -14 10 -14 -18 1 -41 25
-37 40 3 10 0 9 -7 -3 -6 -10 -16 -14 -23 -10 -7 4 -6 0 2 -10 15 -18 26 -23
16 -7 -10 16 1 11 16 -7 8 -10 9 -14 2 -10 -6 4 -14 3 -18 -3 -4 -6 -11 -8
-16 -5 -5 4 -9 1 -9 -4 0 -6 -8 -11 -17 -11 -12 0 -14 -3 -7 -8 9 -5 8 -10 -1
-19 -11 -10 -13 -9 -12 8 1 11 9 25 19 30 20 11 24 29 7 29 -5 0 -7 -5 -3 -12
5 -8 2 -9 -9 -5 -10 4 -16 2 -14 -5 1 -6 -4 -13 -12 -16 -9 -3 -11 0 -7 9 4 8
-1 4 -12 -9 -14 -15 -22 -18 -25 -10 -4 10 -6 10 -6 1 -1 -7 -8 -10 -18 -7
-14 5 -15 4 -4 -4 8 -6 10 -12 3 -16 -6 -4 -9 -16 -7 -27 3 -15 1 -18 -8 -12
-18 14 -50 10 -54 -7 -4 -13 -3 -13 6 0 8 11 11 11 11 2 0 -7 -7 -15 -15 -18
-8 -4 -12 -11 -8 -18 3 -6 2 -8 -2 -3 -5 4 -17 -1 -28 -10 -11 -10 -17 -12
-13 -5 9 15 -40 17 -49 2 -4 -6 -11 -7 -17 -4 -6 4 -8 3 -5 -3 6 -10 -28 -45
-36 -37 -2 3 -7 -2 -10 -10 -4 -9 -1 -18 5 -22 6 -4 8 -3 5 2 -3 6 3 15 14 22
16 10 19 9 19 -4 0 -8 -4 -13 -9 -10 -5 3 -12 -1 -15 -9 -5 -13 -10 -14 -27
-5 -13 8 -18 17 -14 28 5 14 4 14 -6 5 -10 -10 -9 -17 6 -33 20 -22 30 -54 14
-44 -5 3 -7 9 -4 14 7 12 -26 29 -44 22 -9 -3 -11 0 -6 8 5 9 4 11 -4 6 -9 -6
-9 -11 0 -22 9 -11 14 -12 19 -4 5 8 9 6 13 -5 4 -9 3 -14 -1 -11 -4 2 -14 1
-22 -4 -9 -6 -18 -3 -27 8 -11 14 -11 13 -1 -11 8 -19 15 -24 22 -17 5 5 15
10 20 10 6 0 -1 -8 -14 -17 -14 -10 -28 -17 -33 -15 -4 1 -7 -5 -7 -15 0 -9
-3 -14 -6 -10 -4 3 -3 14 0 24 8 21 8 23 -1 23 -7 1 -11 -15 -15 -57 -1 -12
-5 -21 -8 -20 -3 1 -5 -2 -5 -8 0 -5 4 -9 8 -7 5 1 5 -2 2 -8 -4 -6 -10 -9
-13 -6 -3 3 -11 1 -18 -5 -16 -13 -13 13 4 34 19 23 22 54 6 54 -9 0 -11 -4
-5 -10 12 -12 2 -39 -12 -30 -6 3 -7 1 -3 -5 6 -11 -27 -36 -36 -27 -3 3 -13
-5 -24 -17 -14 -16 -14 -19 -2 -10 15 12 16 9 14 -23 -2 -19 -7 -39 -11 -43
-4 -4 -5 4 -1 18 3 14 3 19 0 12 -3 -6 -10 -10 -14 -7 -5 3 -12 0 -16 -6 -5
-8 -3 -9 5 -4 9 5 12 -1 9 -21 -2 -21 -8 -29 -21 -27 -15 1 -18 -4 -15 -22 4
-18 1 -22 -10 -17 -10 3 -13 1 -8 -7 6 -8 0 -10 -20 -7 -21 4 -24 2 -16 -6 16
-16 15 -31 0 -22 -9 5 -9 2 1 -9 7 -9 16 -17 19 -17 3 0 2 3 -1 7 -9 8 12 33
27 33 6 0 3 -7 -7 -14 -10 -8 -18 -17 -18 -20 2 -15 0 -16 -21 -5 -20 11 -21
10 -11 -3 7 -8 9 -18 5 -22 -4 -4 0 -6 8 -4 10 2 14 -3 12 -16 -2 -12 1 -16 9
-10 8 4 10 3 5 -5 -4 -6 -12 -9 -17 -6 -5 4 -12 -1 -15 -9 -3 -9 -9 -14 -13
-12 -4 3 -7 -6 -7 -19 0 -13 4 -21 10 -18 5 4 7 -1 3 -10 -4 -12 -2 -14 10
-10 12 5 14 3 8 -7 -6 -10 -4 -12 9 -7 10 4 15 3 11 -3 -3 -6 -18 -8 -33 -5
-15 3 -21 2 -15 -1 10 -4 10 -11 2 -27 -9 -20 -9 -20 4 -4 18 22 28 22 20 0
-4 -10 -2 -14 5 -9 6 3 14 2 17 -4 4 -6 1 -9 -6 -8 -6 2 -14 -3 -17 -11 -3 -9
0 -11 8 -6 10 6 11 4 4 -6 -15 -24 -14 -41 2 -35 9 3 12 1 9 -5 -4 -5 -16 -7
-28 -3 -12 3 -19 3 -15 -1 4 -5 3 -14 -3 -22 -8 -8 -8 -13 -1 -13 6 0 12 6 15
13 3 9 8 9 18 -2 12 -12 12 -13 0 -6 -9 5 -12 3 -9 -6 3 -8 12 -12 19 -11 8 2
10 0 6 -4 -10 -10 -38 -14 -32 -5 2 4 -2 8 -9 8 -7 0 -13 -6 -13 -13 0 -7 3
-13 6 -12 19 2 31 -3 27 -11 -3 -5 -16 -7 -29 -5 -15 3 -17 2 -7 -3 8 -5 16
-16 18 -27 2 -13 -1 -16 -10 -10 -10 6 -10 4 1 -9 9 -12 10 -17 2 -17 -8 0 -8
-4 1 -14 9 -10 19 -11 33 -4 20 9 20 9 1 -6 -14 -11 -23 -13 -32 -5 -14 12
-14 -7 0 -30 5 -8 4 -16 -4 -21 -8 -5 -6 -9 7 -15 10 -5 21 -8 25 -7 4 1 5 -5
2 -13 -4 -8 -10 -15 -16 -15 -5 0 -6 5 -2 12 4 6 3 8 -4 4 -5 -3 -13 0 -15 6
-4 8 -6 9 -6 2 -1 -6 6 -17 14 -24 8 -7 15 -17 15 -22 0 -7 -5 -6 -13 1 -10 8
-14 7 -14 -4 0 -8 4 -12 9 -9 4 3 8 0 8 -6 0 -6 4 -9 9 -6 10 7 23 -19 14 -28
-4 -3 -11 -6 -17 -6 -6 0 -4 5 4 10 9 6 10 10 3 10 -17 0 -25 -17 -12 -26 8
-4 7 -9 -2 -15 -12 -7 -12 -9 0 -9 8 0 20 8 28 18 13 15 13 15 3 -5 -6 -13
-14 -23 -18 -23 -4 0 -8 -9 -8 -20 0 -12 5 -19 13 -16 7 3 15 0 19 -6 4 -7 3
-8 -4 -4 -7 4 -12 2 -12 -4 0 -8 -6 -8 -22 0 -21 10 -21 10 -6 -3 10 -8 14
-18 10 -22 -4 -5 1 -5 10 -2 10 3 20 1 24 -5 4 -7 3 -8 -4 -4 -7 4 -12 3 -12
-3 0 -6 -6 -8 -14 -5 -8 3 -17 0 -22 -7 -4 -8 -3 -10 4 -5 7 4 12 2 12 -3 0
-6 -5 -11 -12 -11 -6 0 -8 -3 -5 -6 4 -4 13 -2 21 5 11 9 15 8 20 -4 3 -9 2
-13 -4 -10 -6 3 -10 1 -10 -5 0 -6 -4 -8 -10 -5 -6 4 -7 -1 -3 -11 5 -13 3
-15 -8 -9 -12 8 -12 6 0 -8 7 -9 17 -15 21 -12 5 3 11 1 15 -5 4 -6 11 -7 17
-4 7 4 8 2 4 -5 -6 -9 -11 -9 -22 0 -10 8 -14 8 -14 1 0 -6 -6 -10 -12 -8 -7
1 -10 1 -5 -1 4 -3 7 -11 7 -19 0 -9 -5 -12 -12 -8 -7 4 -8 3 -4 -4 4 -6 13
-9 21 -5 11 4 13 1 9 -11 -3 -9 -10 -13 -15 -10 -5 3 -6 -2 -3 -10 4 -10 1
-16 -7 -16 -18 0 -5 -10 20 -15 22 -4 30 10 9 18 -10 4 -10 7 -1 16 7 6 11 8
8 5 -3 -4 0 -13 6 -20 11 -14 3 -38 -10 -29 -5 2 -17 -5 -27 -17 -11 -12 -13
-18 -6 -14 14 8 17 -10 2 -19 -6 -3 -10 -11 -10 -18 0 -6 6 -2 14 9 8 10 18
16 22 12 4 -4 14 -2 23 4 14 10 14 10 3 -2 -7 -8 -17 -16 -23 -16 -5 -1 -12
-2 -16 -3 -4 0 2 -8 13 -17 19 -15 18 -15 -3 -9 -12 3 -24 1 -28 -4 -3 -7 0
-8 9 -5 21 8 20 -5 -1 -23 -10 -8 0 -5 22 7 22 12 31 14 20 5 -17 -13 -18 -17
-5 -25 8 -5 18 -6 24 -3 5 3 6 1 2 -5 -5 -9 -13 -9 -26 -2 -25 14 -30 13 -24
-5 4 -8 11 -12 18 -8 6 3 2 -4 -9 -17 -20 -23 -20 -23 0 -16 11 4 16 4 12 0
-4 -4 -2 -14 5 -21 9 -11 9 -16 -1 -23 -8 -4 -11 -13 -7 -19 5 -7 1 -9 -9 -5
-14 6 -14 8 0 24 15 17 15 19 -5 25 -12 4 -24 4 -27 1 -4 -3 1 -6 10 -6 19 0
23 -15 7 -25 -6 -4 -4 -14 5 -28 20 -31 20 -30 6 -56 -11 -19 -11 -22 0 -16 9
6 10 3 6 -8 -4 -10 -10 -24 -13 -32 -3 -8 -1 -15 6 -15 6 0 9 4 5 9 -3 5 0 13
6 17 7 4 9 3 5 -4 -3 -6 -2 -13 4 -17 6 -4 8 -11 5 -16 -4 -5 -1 -9 5 -9 7 0
8 -5 3 -12 -4 -7 -8 -16 -8 -20 0 -5 -4 -8 -10 -9 -5 0 -14 -7 -18 -15 -5 -8
-13 -11 -19 -8 -7 4 -8 2 -4 -4 5 -9 13 -9 26 -2 32 17 31 11 -2 -19 -18 -17
-26 -29 -18 -28 24 4 41 17 35 28 -4 5 -2 9 4 9 5 0 9 -9 8 -19 0 -11 -5 -17
-9 -15 -4 3 -8 -1 -8 -10 0 -8 6 -17 13 -19 9 -4 9 -6 0 -6 -7 -1 -13 -6 -13
-12 0 -5 6 -7 13 -3 8 5 8 2 -2 -9 -15 -19 -26 -23 -15 -5 4 6 3 8 -2 5 -5 -3
-9 -18 -8 -34 0 -15 -4 -31 -9 -35 -7 -4 -7 -11 1 -20 9 -11 9 -17 0 -26 -9
-9 -9 -12 0 -12 13 0 13 0 16 52 1 21 6 41 10 45 4 4 5 -4 2 -19 -2 -14 -2
-29 2 -32 10 -11 11 -37 1 -30 -5 3 -9 -2 -9 -11 0 -9 4 -14 8 -11 4 2 9 -5 9
-17 2 -20 1 -20 -8 -4 -6 9 -15 17 -22 17 -8 0 -8 -3 -2 -8 6 -4 12 -16 13
-26 3 -18 2 -19 -15 -5 -17 13 -17 13 -4 -4 10 -13 17 -14 27 -7 9 9 12 7 10
-7 -2 -11 -10 -17 -22 -15 -16 3 -16 2 -3 -15 7 -10 18 -21 23 -24 11 -9 -3
-31 -15 -23 -5 3 -7 9 -4 14 3 4 -3 14 -13 21 -15 12 -16 12 -6 -1 15 -22 12
-56 -6 -52 -8 2 -11 0 -7 -5 11 -11 30 -11 38 0 3 5 9 1 12 -8 4 -9 3 -13 -3
-10 -6 3 -10 2 -10 -4 0 -5 5 -11 12 -13 7 -3 5 -7 -6 -11 -9 -4 -15 -3 -11 2
3 5 0 13 -6 17 -8 5 -9 3 -4 -6 6 -10 3 -12 -11 -7 -15 6 -14 4 4 -11 13 -10
20 -21 16 -25 -13 -12 -14 -46 -4 -52 7 -4 9 3 6 19 -3 18 -1 24 6 20 7 -4 8
-2 4 4 -4 7 -2 12 3 12 14 0 14 -17 0 -25 -7 -5 -5 -14 5 -29 12 -19 12 -23 1
-23 -8 0 -11 5 -8 10 4 6 1 7 -7 2 -10 -6 -9 -11 5 -22 18 -12 17 -13 -6 -13
-19 0 -21 -2 -9 -10 8 -5 11 -10 6 -10 -5 0 -1 -10 10 -22 10 -13 12 -17 4
-11 -8 7 -17 13 -21 13 -9 0 -5 -27 6 -37 4 -5 5 -1 0 7 -5 9 -5 12 1 7 5 -5
9 -12 9 -15 1 -16 17 -32 27 -26 6 4 8 2 5 -4 -9 -14 -43 -8 -39 8 1 6 -2 9
-8 5 -5 -3 -10 -1 -10 6 0 7 -3 9 -6 6 -4 -4 -1 -13 5 -21 10 -11 8 -17 -6
-25 -10 -6 -13 -11 -7 -11 5 0 15 5 22 12 7 7 12 8 12 2 0 -6 -3 -14 -7 -18
-4 -3 -8 -22 -10 -41 -2 -30 1 -35 20 -36 20 0 20 -1 3 -8 -16 -6 -17 -9 -3
-22 13 -14 13 -17 -5 -28 -19 -12 -20 -11 -14 6 5 13 4 15 -4 7 -6 -6 -8 -19
-4 -28 5 -14 9 -15 15 -4 7 10 9 9 9 -5 0 -12 4 -16 13 -11 9 6 9 5 0 -8 -7
-8 -12 -17 -10 -19 1 -2 -3 0 -8 6 -6 5 -17 11 -25 13 -15 2 8 -20 40 -38 13
-7 13 -11 1 -22 -12 -11 -13 -11 -6 1 5 9 4 12 -3 7 -7 -4 -12 -2 -12 4 0 6
-5 8 -10 5 -6 -4 -1 -15 12 -26 13 -12 17 -18 11 -14 -7 3 -13 1 -13 -4 0 -6
6 -11 14 -11 23 0 26 -26 3 -28 -17 -1 -19 1 -7 8 9 6 10 10 3 10 -22 0 -25
-21 -5 -27 24 -6 36 -29 21 -39 -6 -3 -13 -3 -16 0 -4 3 0 6 8 6 12 0 12 2 -1
9 -21 14 -33 2 -18 -17 11 -14 10 -15 -7 -9 -17 6 -18 5 -5 -6 21 -17 25 -41
5 -33 -10 3 -14 2 -10 -5 4 -6 14 -8 22 -4 13 4 13 3 4 -9 -8 -9 -8 -15 -1
-18 13 -4 24 -58 11 -58 -4 0 -8 10 -7 22 0 11 -6 23 -14 25 -9 3 -11 1 -5 -4
19 -15 17 -36 -2 -29 -16 5 -16 4 -3 -6 18 -15 21 -49 5 -60 -7 -5 -7 -8 0 -8
7 0 11 -30 10 -75 0 -41 -4 -75 -9 -75 -5 0 -7 -3 -4 -6 4 -3 15 -1 25 4 16 9
19 7 20 -11 2 -16 0 -18 -6 -8 -7 11 -13 11 -27 1 -11 -6 -12 -10 -4 -7 8 2
24 -5 35 -15 20 -19 20 -19 0 -12 -16 6 -18 5 -8 -7 7 -7 13 -18 13 -24 0 -5
-4 -4 -9 4 -14 22 -27 -15 -26 -72 1 -36 -2 -46 -13 -42 -7 3 -10 0 -7 -6 4
-6 13 -8 20 -5 8 3 16 0 18 -7 2 -7 7 -9 11 -6 4 4 1 13 -6 20 -13 14 -18 63
-7 74 4 3 6 -5 5 -17 -1 -13 4 -35 11 -50 14 -29 5 -42 -23 -31 -11 4 -15 3
-11 -4 8 -13 -17 -35 -29 -25 -4 4 -2 -1 5 -10 7 -10 11 -25 7 -33 -3 -9 -2
-14 2 -11 4 3 13 -4 20 -14 9 -14 9 -21 0 -26 -6 -4 -8 -3 -5 3 4 6 -1 14 -10
17 -10 4 -14 4 -10 0 4 -4 2 -13 -4 -20 -7 -8 -6 -14 2 -20 8 -4 9 -3 5 4 -5
8 -1 10 9 5 13 -4 14 -8 4 -13 -7 -5 -19 -6 -27 -3 -12 5 -12 2 -3 -16 7 -12
8 -21 4 -20 -23 4 -53 -2 -53 -11 0 -5 8 -7 17 -3 10 3 15 3 11 -2 -4 -4 -3
-16 3 -26 7 -15 6 -17 -6 -13 -8 3 -13 9 -10 13 2 4 -2 8 -10 8 -8 0 -14 -3
-13 -6 2 -22 -4 -31 -14 -25 -8 5 -8 1 1 -10 12 -14 12 -19 2 -25 -18 -11 -18
-16 -1 -36 8 -10 15 -25 15 -34 0 -9 6 -15 13 -13 8 1 11 -2 7 -8 -5 -8 -11
-8 -19 -1 -7 6 -16 7 -21 3 -4 -4 -2 4 5 17 6 13 7 21 2 17 -6 -3 -12 -1 -14
5 -2 7 -4 -4 -5 -24 -1 -27 3 -34 13 -30 8 3 14 0 14 -7 0 -6 -4 -8 -10 -5 -5
3 -10 -1 -10 -9 0 -9 -5 -16 -11 -16 -5 0 -7 -5 -4 -10 3 -6 4 -10 0 -10 -3 0
-14 15 -25 33 -21 34 -28 30 -9 -5 7 -14 8 -23 1 -30 -6 -6 -8 -18 -4 -27 5
-14 4 -14 -11 -2 -11 9 -17 10 -17 2 0 -6 5 -11 11 -11 6 0 9 -6 6 -12 -2 -7
-11 -12 -18 -10 -8 2 -10 0 -6 -5 5 -4 13 -9 18 -9 5 -1 14 -2 19 -3 13 -1 13
-31 -1 -31 -5 0 -8 4 -5 8 3 5 -1 9 -9 9 -13 0 -13 -3 0 -17 19 -21 20 -36 2
-21 -10 8 -14 7 -14 -4 0 -8 4 -12 9 -9 5 3 7 -6 4 -20 -3 -14 -1 -28 4 -31 5
-3 7 3 5 14 -4 20 21 49 32 37 3 -3 1 -6 -5 -6 -7 0 -12 -15 -12 -35 0 -28 -3
-33 -17 -28 -12 3 -10 0 5 -12 19 -14 25 -15 39 -3 12 9 15 9 9 1 -4 -7 -2
-13 3 -13 6 0 11 -8 11 -17 0 -15 -1 -15 -13 2 -10 12 -16 14 -21 7 -4 -7 -2
-12 3 -12 6 0 11 -4 11 -9 0 -5 -8 -8 -17 -6 -10 1 -12 0 -5 -2 7 -3 9 -10 5
-16 -4 -7 1 -6 10 2 17 14 24 2 8 -14 -5 -6 -5 -19 -1 -30 9 -21 9 -22 14 27
0 6 8 13 16 15 13 4 13 3 0 -6 -13 -10 -8 -15 12 -12 4 0 5 -6 1 -15 -5 -13
-8 -13 -15 -2 -6 9 -7 6 -3 -9 3 -13 2 -23 -3 -23 -17 0 -9 -33 10 -38 21 -5
23 -13 6 -31 -11 -11 -10 -13 5 -8 11 4 16 3 12 -3 -3 -6 -2 -10 3 -10 5 0 12
-10 15 -22 4 -12 9 -20 12 -16 3 3 1 17 -4 32 -6 14 -8 26 -6 26 5 0 26 -49
26 -60 0 -3 6 -12 13 -20 14 -17 14 -29 1 -50 -7 -12 -6 -13 7 -3 8 7 18 10
21 6 13 -12 141 -12 156 0 10 8 13 8 8 1 -4 -8 9 -11 43 -11 26 1 47 4 44 8
-2 4 0 11 6 14 6 4 9 1 8 -7 -4 -17 469 -21 491 -4 11 8 13 8 8 -1 -5 -8 4
-12 33 -11 25 0 37 4 33 11 -4 6 -1 7 8 1 8 -5 201 -9 431 -10 230 0 421 -3
424 -7 4 -4 13 -2 20 4 11 9 15 7 20 -5 6 -15 8 -15 20 1 16 22 18 12 3 -21
-6 -13 -21 -28 -32 -33 -19 -9 -19 -10 -3 -16 9 -4 15 -3 11 2 -3 5 4 12 15
16 11 3 19 9 19 13 -3 20 3 32 22 43 16 8 20 8 14 0 -4 -8 4 -10 27 -7 18 3
27 3 20 0 -6 -3 -9 -11 -5 -17 4 -7 -1 -5 -12 3 -16 14 -17 13 -11 -7 4 -12 2
-24 -3 -28 -6 -3 -8 0 -5 8 3 8 -2 19 -9 26 -12 9 -16 8 -21 -4 -9 -25 3 -41
32 -42 31 -1 266 -3 327 -2 86 1 272 0 313 -1 34 -1 42 2 36 12 -6 10 -5 10 7
1 8 -7 44 -11 82 -11 41 1 63 4 55 9 -7 5 -20 6 -29 4 -10 -3 -16 1 -16 10 0
9 6 14 13 11 8 -3 11 0 7 10 -4 11 -9 12 -17 4 -6 -6 -11 -16 -11 -22 0 -12
-41 -19 -62 -11 -19 7 -16 31 5 41 9 5 34 8 55 7 20 -1 37 2 37 5 0 8 75 4 89
-5 6 -3 11 -1 11 5 0 7 6 8 17 1 9 -5 26 -6 37 -2 12 3 208 6 436 5 290 -1
419 2 429 10 10 7 13 8 8 0 -8 -13 351 -13 372 0 9 6 12 5 8 -2 -5 -7 41 -9
150 -7 87 1 160 4 163 5 3 1 9 2 14 1 5 -1 4 4 -2 11 -7 9 -8 19 -2 28 6 8 10
11 10 5 0 -5 5 -2 11 8 5 9 8 21 4 26 -8 14 16 61 28 54 6 -4 8 0 5 9 -4 8 0
15 8 15 7 0 11 -4 8 -9 -3 -4 0 -8 7 -8 13 0 3 -14 -12 -16 -5 -1 -13 -2 -18
-3 -23 -3 -16 -26 8 -27 14 -1 20 1 14 3 -7 3 -13 9 -13 14 0 6 4 8 9 4 5 -3
12 -1 16 5 4 6 10 8 15 5 6 -3 2 7 -7 24 -10 16 -22 27 -28 24 -5 -3 -5 0 2 7
10 11 15 11 29 -1 16 -13 16 -12 7 5 -6 10 -8 27 -6 37 3 11 0 19 -6 19 -6 0
-11 5 -11 11 0 6 7 9 15 6 8 -4 17 -2 20 4 4 5 11 7 16 4 5 -3 6 1 3 10 -6 14
-8 14 -20 -2 -9 -12 -13 -14 -14 -5 0 7 -4 11 -8 8 -5 -3 -9 1 -9 9 0 11 4 12
14 4 12 -11 18 -2 14 24 0 4 4 7 9 7 5 0 9 6 7 13 -1 6 3 11 10 10 7 -2 10 4
6 13 -6 17 -29 13 -25 -5 1 -7 -2 -10 -8 -6 -7 4 -9 -3 -6 -19 3 -15 1 -24 -4
-21 -12 7 -5 58 9 63 6 2 8 8 5 13 -3 6 -12 5 -22 -3 -15 -12 -16 -11 -3 4 7
10 17 15 22 13 4 -3 7 4 6 15 -1 11 -6 20 -11 20 -5 0 -1 6 9 14 25 18 28 46
7 69 -16 18 -17 18 -23 0 -7 -16 -8 -16 -8 -1 -1 20 15 32 24 18 3 -5 11 -10
18 -10 8 0 8 3 -1 12 -15 15 -15 28 -1 28 5 0 7 -5 3 -12 -4 -7 -3 -8 4 -4 7
4 9 -1 7 -15 -2 -12 0 -31 6 -42 8 -15 8 -22 -2 -28 -10 -6 -7 -8 8 -6 17 1
20 5 12 18 -13 25 -11 33 5 20 11 -9 16 -9 22 0 4 7 3 9 -4 5 -6 -3 -13 -2
-17 4 -4 6 -11 8 -16 5 -5 -4 -9 -1 -9 4 0 6 7 11 15 11 8 0 15 4 15 10 0 5
-7 7 -15 3 -9 -3 -15 -2 -14 3 1 5 0 12 -1 17 -1 4 -3 12 -4 19 0 6 -8 13 -16
15 -13 4 -13 3 0 -7 13 -10 12 -11 -3 -6 -10 3 -21 6 -24 6 -3 0 1 7 8 16 12
15 11 16 -11 11 -14 -4 -19 -4 -12 -1 6 3 12 12 12 19 0 7 -6 15 -12 18 -9 3
-6 12 10 30 14 14 19 28 14 31 -6 3 -13 1 -15 -4 -3 -6 -4 -5 -3 2 2 7 8 14
14 14 7 1 17 2 23 3 5 0 7 6 3 13 -4 6 -3 8 3 5 14 -9 55 22 47 35 -4 7 -2 8
4 4 15 -9 4 -34 -19 -41 -11 -4 -17 -11 -13 -16 4 -6 11 -6 20 2 8 6 14 8 14
3 0 -5 5 -2 10 6 7 11 10 11 10 2 0 -7 4 -11 9 -7 5 3 13 0 17 -6 4 -8 3 -9
-4 -5 -8 5 -10 2 -6 -9 6 -14 8 -14 20 2 13 17 13 17 14 -2 1 -19 2 -18 10 2
7 16 14 21 27 16 19 -7 18 -5 -11 17 -16 12 -18 12 -11 1 6 -10 4 -12 -5 -6
-8 5 -11 4 -7 -2 3 -5 0 -10 -8 -10 -20 0 -19 13 2 22 17 7 16 8 -2 15 -14 6
-15 9 -4 9 8 1 19 -3 25 -9 12 -12 85 35 81 53 -1 7 7 11 21 9 12 -2 22 2 22
8 0 6 -4 9 -9 5 -5 -3 -13 0 -17 7 -4 7 -4 10 0 6 4 -3 27 2 51 12 46 20 57
18 49 -8 -5 -14 -4 -14 6 1 8 13 15 15 30 7 10 -5 26 -7 36 -3 13 5 15 3 9 -8
-7 -12 -6 -12 7 -1 11 9 18 9 21 2 3 -6 4 -5 3 2 -2 7 -9 12 -15 11 -6 -2 -11
2 -11 8 0 6 9 8 21 4 15 -5 19 -4 14 5 -6 9 -3 9 13 1 14 -7 23 -8 27 -1 3 5
12 10 18 9 9 0 8 -2 -1 -6 -6 -2 -9 -10 -6 -15 5 -7 2 -8 -7 -3 -11 6 -11 5
-2 -5 6 -7 9 -19 5 -28 -3 -10 3 -7 16 6 26 26 29 40 5 21 -17 -12 -17 -12 -1
5 21 23 42 13 28 -14 -5 -10 -10 -22 -10 -27 1 -4 8 5 17 21 14 28 14 30 -3
44 -16 13 -16 14 -2 9 11 -4 22 1 28 11 11 16 11 16 6 0 -3 -11 0 -18 7 -18 8
0 7 -4 -3 -10 -8 -5 -12 -11 -10 -14 3 -2 14 2 24 10 11 8 14 14 8 14 -7 0
-12 4 -12 10 0 5 7 7 15 4 11 -5 13 -2 9 10 -5 14 4 21 27 18 4 -1 5 8 2 18
-4 14 -1 19 8 17 8 -2 11 -2 7 0 -5 3 -8 12 -8 20 0 13 2 14 18 2 15 -13 16
-12 4 3 -7 9 -9 18 -5 20 4 3 2 3 -4 2 -16 -4 -17 12 -3 21 8 5 7 12 -1 22
-10 12 -10 16 1 23 8 5 11 12 7 16 -4 4 -2 13 5 21 8 11 7 12 -6 7 -10 -4 -15
-13 -12 -20 3 -7 1 -16 -5 -20 -17 -10 -21 3 -9 25 8 16 8 21 -2 21 -9 0 -10
3 -2 8 17 11 14 95 -5 110 -14 11 -14 11 3 5 14 -5 17 -3 11 7 -5 9 -4 11 4 6
6 -4 9 -12 6 -17 -4 -5 -2 -9 3 -9 6 0 9 11 8 25 -1 20 -5 24 -21 19 -15 -4
-16 -3 -6 4 8 6 11 17 7 27 -4 12 -2 16 8 12 11 -4 13 -1 9 10 -5 12 -3 14 8
8 8 -5 7 -1 -4 12 -9 11 -14 22 -11 26 3 3 2 12 -2 19 -5 7 -9 19 -10 26 -5
27 -14 43 -23 38 -10 -7 -9 20 2 30 10 10 9 26 -1 20 -5 -3 -9 1 -9 9 0 8 4
12 9 9 4 -3 8 0 8 5 0 6 5 11 11 11 8 0 9 -4 0 -13 -6 -8 -8 -17 -4 -20 3 -4
0 -14 -8 -24 -12 -15 -12 -16 2 -11 11 4 16 1 15 -9 0 -9 6 -18 14 -20 9 -3
11 -1 5 4 -6 4 -12 17 -12 28 -1 11 -3 27 -5 35 -2 9 3 14 11 12 22 -5 -6 26
-30 33 -11 4 -17 10 -14 15 3 5 -12 18 -34 30 -41 21 -68 27 -41 10 9 -6 10
-10 3 -10 -6 0 -18 6 -26 14 -11 12 -17 12 -28 3 -11 -10 -11 -9 0 6 9 11 17
14 25 8 8 -6 17 -6 26 1 13 8 12 9 -1 5 -9 -3 -21 -1 -27 5 -8 8 -16 7 -28 -3
-10 -8 -15 -9 -11 -2 4 6 3 14 -3 18 -6 4 -8 11 -4 16 8 14 26 0 18 -14 -4 -7
1 -4 12 5 15 14 16 20 5 30 -10 11 -11 9 -6 -7 6 -18 6 -19 -7 -3 -14 16 -16
16 -33 0 -15 -13 -16 -13 -7 -1 6 9 8 20 4 24 -4 5 -2 5 5 1 6 -3 14 -2 18 4
4 6 10 8 15 5 5 -3 11 -1 14 3 3 5 -5 9 -18 8 -14 0 -25 4 -25 9 0 6 8 9 17 7
11 -1 7 4 -8 13 l-25 16 30 -5 c17 -3 24 -3 17 0 -6 3 -9 11 -5 17 4 6 0 8
-10 4 -9 -3 -19 -1 -23 5 -5 7 -2 8 6 3 10 -6 12 -4 7 9 -6 14 -4 15 16 5 21
-12 21 -11 5 8 -20 22 -25 44 -6 25 7 -7 17 -12 23 -12 5 0 2 5 -8 11 -9 6
-15 14 -12 20 9 13 -9 11 -25 -4 -12 -10 -12 -9 -2 5 10 13 10 17 0 22 -7 3 0
4 16 0 l30 -5 -25 20 c-13 12 -19 21 -14 20 24 -3 27 2 9 17 -16 13 -16 15 -1
10 27 -8 20 13 -8 24 -14 5 -25 11 -25 13 0 6 34 2 46 -6 6 -3 11 0 11 8 0 8
-5 12 -10 8 -5 -3 -6 3 -3 15 4 11 2 23 -3 27 -6 3 -9 0 -8 -7 2 -7 2 -10 0
-5 -3 4 -10 4 -15 1 -7 -5 -8 -2 -2 7 4 8 9 20 10 27 4 26 13 25 23 -2 6 -14
12 -26 15 -26 7 0 -6 40 -15 45 -4 3 -6 12 -3 19 3 8 0 17 -7 22 -7 4 -10 3
-6 -3 4 -6 -1 -17 -11 -24 -14 -11 -15 -11 -5 1 10 10 9 16 -3 25 -13 9 -12
11 8 10 12 0 29 -4 36 -9 11 -7 11 -4 0 13 -8 14 -19 19 -33 16 -15 -5 -14 -2
5 9 14 8 29 12 35 8 5 -3 2 4 -7 15 -20 21 -24 38 -8 28 6 -3 7 1 4 9 -3 9
-10 16 -16 16 -5 0 -6 -5 -2 -12 4 -7 3 -8 -4 -4 -6 4 -8 14 -5 24 6 15 5 16
-13 2 -18 -14 -18 -14 -5 2 10 14 17 15 33 7 11 -6 22 -8 26 -5 3 3 0 6 -7 6
-7 0 -9 5 -6 10 4 6 3 10 -2 9 -22 -4 -23 3 -2 21 13 11 18 19 10 18 -7 -2
-16 3 -18 10 -3 8 1 10 14 5 17 -7 17 -6 0 11 -16 17 -16 20 -2 36 11 12 12
17 3 18 -25 2 -47 8 -54 14 -3 4 9 5 27 3 19 -2 28 -1 22 2 -19 7 -16 23 5 23
14 0 14 2 3 9 -10 7 -19 4 -28 -7 -12 -16 -13 -16 -7 1 3 9 1 17 -5 17 -6 0
-11 5 -11 11 0 8 5 8 15 -1 23 -19 18 0 -7 29 -13 14 -15 19 -5 12 20 -15 23
-2 5 19 -11 12 -10 12 5 0 10 -7 16 -19 13 -27 -3 -7 -1 -13 5 -13 7 0 9 10 5
26 -4 15 -3 23 2 20 6 -3 16 2 23 12 12 15 12 16 -1 6 -23 -16 -45 -11 -42 10
2 12 -1 16 -10 10 -8 -4 -10 -3 -5 2 5 5 14 9 20 9 5 0 12 6 15 14 3 8 0 11
-5 8 -5 -3 -15 4 -23 16 -12 20 -12 21 3 8 14 -11 17 -11 17 0 0 8 6 5 16 -7
14 -18 15 -18 4 5 -9 18 -9 25 0 31 8 5 9 10 2 14 -6 3 -14 -3 -17 -14 -5 -17
-9 -19 -21 -9 -20 16 0 38 31 34 13 -1 24 1 23 4 -1 3 2 14 7 24 4 10 2 24 -6
34 -13 15 -12 15 8 3 12 -8 19 -19 16 -25 -4 -5 3 -2 14 8 11 9 23 14 26 10 4
-3 7 -1 7 6 0 8 -6 11 -16 7 -9 -3 -12 -2 -9 5 4 5 2 16 -5 24 -8 10 -8 15 1
21 7 4 9 3 6 -3 -4 -6 0 -16 8 -23 11 -9 15 -9 16 -1 3 26 4 30 13 38 5 5 6 2
1 -6 -6 -10 -2 -11 16 -6 21 7 22 6 10 -8 -7 -9 -18 -14 -24 -10 -6 3 -7 1 -3
-6 6 -8 12 -9 20 -2 7 6 15 8 19 5 8 -8 3 18 -6 34 -5 6 -5 12 0 13 4 0 -1 5
-12 10 l-20 9 20 -2 c27 -2 56 12 49 23 -12 20 8 30 31 15 17 -12 26 -13 31
-4 4 7 3 8 -4 4 -8 -5 -12 0 -12 13 0 10 -6 22 -12 25 -7 3 -1 3 14 1 30 -4
47 21 27 39 -9 8 -11 7 -7 -4 4 -11 -1 -16 -16 -17 -11 0 -15 1 -8 4 6 3 12 9
12 14 0 6 -5 7 -12 3 -6 -4 -8 -3 -4 4 3 6 17 9 29 7 17 -4 23 0 23 15 0 11
-4 20 -9 20 -5 0 -4 6 2 13 6 8 7 17 3 22 -4 4 3 3 14 -3 12 -6 24 -9 27 -6 8
8 3 -19 -6 -34 -5 -7 -13 -10 -18 -7 -5 4 -9 1 -9 -4 0 -6 5 -11 11 -11 8 0 7
-5 -1 -15 -14 -17 -8 -31 9 -20 6 3 8 11 5 17 -5 7 -2 9 8 6 8 -4 15 -1 15 7
0 7 -7 11 -16 8 -13 -4 -13 -2 2 10 19 15 20 70 1 63 -6 -2 -17 0 -25 5 -11 7
-11 9 -1 9 10 0 9 4 -3 16 -9 9 -14 27 -12 42 2 16 -3 32 -12 40 -14 11 -14
11 2 6 13 -5 16 -2 11 10 -3 9 -10 13 -15 10 -5 -3 -6 3 -2 12 4 10 2 15 -4
11 -5 -3 -10 0 -10 8 0 22 15 18 22 -5 4 -11 11 -18 16 -15 5 4 6 -2 2 -11 -5
-14 -3 -16 13 -11 17 6 17 6 3 -6 -14 -10 -14 -14 -3 -25 9 -8 14 -9 14 -2 0
6 4 9 8 6 4 -2 8 8 7 24 0 15 -3 26 -7 23 -11 -6 -49 22 -41 30 3 4 0 7 -8 7
-12 0 -11 2 1 11 12 9 11 10 -5 4 -25 -8 -75 -16 -57 -9 6 3 12 10 12 15 0 6
-5 7 -12 3 -7 -5 -8 -3 -3 5 5 9 10 10 18 2 15 -15 24 -14 31 5 5 13 4 14 -7
6 -8 -7 -17 -9 -20 -5 -10 9 -9 25 1 19 5 -3 9 1 9 9 0 8 -4 15 -9 15 -4 0 -8
-4 -8 -9 0 -14 -30 -7 -40 9 -4 7 -6 20 -2 29 3 9 2 13 -2 10 -12 -11 -15 -49
-4 -49 6 0 8 -3 5 -6 -10 -11 -38 17 -29 30 14 21 9 63 -7 63 -33 0 -42 3 -37
11 3 5 -1 9 -9 9 -8 0 -15 -3 -15 -7 0 -8 51 -34 62 -32 8 2 4 -25 -6 -35 -4
-4 -6 -1 -4 7 2 10 -4 14 -17 12 -14 -2 -16 0 -7 6 9 6 6 11 -11 19 -18 9 -28
8 -36 0 -10 -9 -15 -8 -24 3 -7 9 -20 15 -30 14 -12 -1 -13 -1 -2 3 8 2 13 8
10 13 -3 4 3 7 12 5 10 -1 17 -9 15 -19 -4 -24 11 -19 24 8 10 22 9 23 -17 21
-31 -3 -54 17 -44 37 4 7 0 5 -8 -4 -15 -19 -29 -14 -21 7 3 7 1 16 -5 20 -7
3 -8 0 -5 -9 4 -10 0 -14 -13 -11 -10 1 -17 8 -16 14 2 6 -2 11 -7 11 -10 0
-13 -12 -7 -27 1 -5 10 -7 19 -7 13 1 15 -3 8 -16 -5 -10 -6 -21 -2 -25 4 -5
2 -5 -5 -1 -7 4 -10 12 -7 20 3 9 -6 12 -31 12 -30 -1 -34 -4 -29 -21 5 -20 5
-20 -7 0 -7 11 -17 23 -22 26 -5 4 -5 9 2 13 6 4 11 3 11 -1 0 -5 10 -9 23
-10 20 -2 20 -1 4 9 -10 5 -29 11 -42 13 l-24 2 20 -41 c11 -23 14 -33 6 -23
-8 9 -17 17 -20 17 -4 0 -4 -8 -1 -17 4 -11 3 -14 -3 -7 -8 11 -39 11 -50 0
-3 -3 -20 2 -37 10 l-31 15 28 -21 c15 -12 27 -27 27 -33 0 -7 -5 -4 -11 6 -5
9 -15 17 -21 17 -7 0 -7 -5 1 -14 10 -11 9 -14 -1 -12 -7 1 -19 5 -27 10 -10
7 -12 4 -6 -13 3 -11 2 -21 -3 -21 -5 0 -9 10 -8 23 1 12 7 21 14 20 7 -2 12
1 12 6 0 6 -9 9 -19 8 -11 0 -17 -5 -14 -11 4 -5 -1 -7 -10 -3 -9 3 -21 -1
-29 -11 -12 -15 -11 -16 4 -4 9 8 19 9 22 4 3 -6 -1 -12 -9 -15 -8 -4 -12 -14
-10 -25 2 -11 -2 -19 -11 -19 -10 0 -11 4 -3 13 7 8 7 14 -1 19 -6 4 -9 2 -8
-4 2 -5 -6 -17 -17 -26 -11 -9 -14 -14 -8 -10 7 3 25 -1 40 -10 16 -9 19 -13
8 -10 -23 7 -26 8 -42 6 -7 0 -10 -7 -7 -15 7 -18 -12 -30 -22 -15 -4 8 -3 9
4 5 7 -4 12 -5 12 -2 0 3 -9 10 -21 16 -19 10 -20 10 -10 -9 16 -28 14 -36 -6
-20 -15 13 -15 12 -3 -8 12 -18 17 -20 30 -10 13 11 13 10 1 -5 -7 -10 -18
-15 -23 -11 -6 3 -8 0 -6 -8 3 -8 12 -13 19 -11 8 2 10 0 6 -5 -5 -4 -13 -9
-18 -9 -5 -1 -12 -2 -15 -3 -4 0 -1 -8 7 -17 8 -9 9 -18 3 -22 -12 -9 -14 -83
-1 -75 5 3 4 -4 -2 -15 -14 -27 -14 -35 1 -26 7 4 8 3 4 -5 -4 -6 -12 -8 -18
-5 -8 5 -9 1 -4 -12 4 -10 9 -23 10 -29 1 -5 9 -24 17 -41 12 -24 13 -31 3
-31 -7 0 -10 5 -7 10 3 6 2 7 -3 4 -5 -3 -10 2 -11 11 -3 33 -10 57 -16 55 -4
-2 -10 -3 -13 -3 -4 0 -1 -6 5 -13 6 -8 8 -17 4 -20 -3 -4 -1 -7 5 -7 7 0 12
-5 12 -11 0 -5 -5 -7 -12 -3 -6 4 -3 -4 8 -18 10 -14 25 -23 31 -21 7 3 13 -2
13 -11 0 -10 -6 -14 -17 -10 -14 4 -13 2 2 -7 11 -8 25 -14 30 -14 6 0 9 -10
7 -23 -2 -12 1 -22 6 -22 10 0 9 30 -2 48 -4 7 -12 9 -18 6 -7 -4 -8 -2 -4 4
13 22 42 -2 37 -30 0 -5 4 -8 9 -8 6 0 20 -11 32 -25 18 -20 24 -23 37 -12 11
9 13 9 8 0 -4 -7 0 -16 9 -21 10 -6 12 -12 6 -16 -5 -3 -12 1 -16 9 -6 16 -36
10 -36 -7 0 -7 5 -6 14 1 11 9 16 5 26 -19 l13 -31 23 22 c13 12 27 19 31 16
3 -4 1 -7 -6 -7 -7 0 -10 -4 -6 -10 3 -5 13 -7 23 -4 15 5 15 4 -1 -6 -16 -10
-16 -13 8 -44 18 -24 21 -33 10 -33 -8 0 -11 5 -8 11 4 6 -2 4 -13 -4 -29 -22
-30 -24 -11 -17 24 9 21 -8 -4 -25 l-21 -14 20 0 c12 0 19 2 17 5 -6 6 15 31
26 31 5 0 9 -5 9 -11 0 -5 -4 -7 -10 -4 -11 7 -14 -28 -3 -39 11 -11 12 -67 2
-60 -5 3 -9 -4 -9 -16 0 -12 4 -19 9 -16 10 7 9 -49 -2 -60 -12 -12 -8 -26 6
-18 6 4 9 4 5 -1 -4 -4 -2 -15 5 -24 10 -14 10 -14 -4 -4 -9 7 -20 9 -24 5 -5
-4 -5 -1 0 6 6 11 3 12 -14 3 -24 -13 -28 -23 -6 -15 12 5 14 2 8 -12 -6 -17
-5 -18 12 -4 12 10 16 10 11 2 -4 -7 -3 -19 3 -26 8 -9 7 -13 -4 -13 -8 0 -11
5 -8 11 3 6 3 8 -2 4 -4 -4 -14 -3 -21 3 -8 7 -14 7 -19 -1 -4 -6 -1 -9 7 -8
7 2 12 -3 10 -10 -1 -8 2 -11 8 -7 5 3 10 -1 10 -10 0 -9 -4 -14 -9 -10 -5 3
-12 1 -16 -5 -4 -6 -11 -7 -17 -4 -7 4 -8 2 -4 -5 6 -9 11 -9 21 -1 9 8 14 7
18 -4 4 -9 -1 -17 -11 -19 -12 -3 -11 -5 6 -6 12 0 22 3 22 7 0 5 7 9 15 9 9
0 5 -9 -13 -26 -15 -14 -30 -25 -34 -24 -8 3 -5 -18 5 -34 4 -6 3 -15 -3 -18
-8 -5 -7 -11 1 -21 6 -8 8 -14 3 -14 -4 0 -3 -5 4 -12 16 -16 15 -33 -1 -19
-10 8 -14 7 -14 -4 0 -8 4 -12 8 -10 4 3 10 -2 13 -11 9 -24 7 -28 -7 -15 -10
8 -14 7 -14 -4 0 -8 5 -11 10 -8 7 4 8 -1 3 -12 -6 -18 -6 -18 12 -2 27 25 36
21 12 -5 -11 -12 -17 -24 -14 -27 3 -3 12 2 19 13 13 18 14 18 12 -2 0 -12 -3
-19 -6 -17 -2 3 -10 -3 -18 -13 -8 -9 -12 -11 -8 -4 3 6 2 12 -3 12 -6 0 -12
-6 -15 -14 -4 -10 1 -13 17 -12 19 2 22 -1 18 -22 -3 -15 -1 -23 5 -19 5 3 10
0 10 -8 0 -8 -3 -13 -5 -10 -3 3 -11 0 -18 -6 -10 -8 -12 -4 -9 19 3 27 1 30
-25 28 -15 0 -26 -4 -23 -9 2 -4 8 -5 13 -2 15 9 31 -30 18 -43 -8 -8 -2 -10
23 -7 19 2 28 1 22 -2 -15 -6 -17 -40 -3 -45 6 -2 2 -8 -9 -15 -17 -11 -19 -9
-15 17 4 24 2 29 -15 27 -11 0 -17 -5 -15 -9 3 -5 10 -6 15 -3 11 7 7 -24 -5
-44 -7 -10 -5 -12 4 -6 8 5 11 3 8 -6 -3 -8 -11 -13 -17 -11 -7 1 -9 -2 -6 -9
5 -7 16 -3 33 13 l26 23 -18 -28 c-18 -29 -17 -29 4 -22 21 7 21 6 3 -14 -18
-22 -29 -28 -18 -11 3 6 1 10 -5 10 -7 0 -10 -7 -6 -15 3 -9 0 -15 -9 -15 -9
0 -12 8 -10 21 3 12 1 19 -2 15 -15 -15 -10 -39 9 -44 15 -4 17 -7 6 -14 -11
-8 -11 -9 0 -6 8 2 13 7 12 12 -1 5 4 13 12 17 25 16 29 9 8 -13 -11 -12 -18
-29 -15 -37 3 -9 3 -12 -1 -9 -3 4 -15 -3 -25 -15 -10 -12 -18 -16 -19 -9 0 6
5 12 10 12 6 0 10 5 10 11 0 6 -7 8 -16 5 -18 -7 -54 19 -54 38 0 6 4 5 9 -2
6 -11 10 -10 15 4 4 10 4 15 0 11 -4 -4 -13 1 -21 11 -12 16 -13 15 -6 -3 6
-18 5 -18 -10 -6 -9 7 -17 10 -17 5 0 -4 -7 1 -15 12 -11 15 -17 16 -23 6 -10
-16 -33 -12 -48 7 -9 11 -11 11 -11 -3 0 -9 3 -16 6 -17 3 0 15 -2 26 -4 10
-2 26 2 34 8 12 10 14 9 8 -5 -3 -10 -1 -20 5 -24 6 -4 8 -3 4 4 -3 6 1 9 11
8 9 -2 18 -8 19 -15 1 -6 0 -7 -3 -1 -2 5 -9 7 -14 4 -6 -3 -5 -12 3 -22 11
-14 9 -14 -8 1 -11 9 -24 14 -29 10 -4 -5 -5 -3 -2 3 4 7 -2 14 -14 17 -12 3
-22 0 -26 -9 -5 -14 -24 -20 -22 -6 4 25 -3 32 -27 26 -19 -5 -25 -4 -20 5 4
6 11 9 16 6 5 -3 11 -1 14 4 10 16 -22 6 -44 -14 -22 -20 -26 -14 -9 18 12 21
12 21 -14 4 -31 -20 -34 -21 -40 -5 -2 7 -3 5 -2 -4 2 -10 -1 -21 -6 -24 -5
-3 -9 5 -10 18 0 13 -3 17 -6 11 -2 -7 -9 -13 -14 -13 -6 0 -7 5 -4 10 3 5 1
10 -5 10 -6 0 -9 4 -5 9 3 6 -7 22 -22 37 -16 14 -22 23 -15 20 6 -4 12 -2 12
3 0 6 -6 11 -12 11 -9 0 -8 4 2 10 20 13 30 12 30 -1 0 -5 -4 -8 -8 -5 -4 2
-8 -4 -8 -15 0 -10 3 -19 7 -19 11 0 18 42 10 59 -4 9 -6 29 -5 44 2 24 1 27
-12 17 -10 -9 -14 -9 -14 -1 0 6 4 11 8 11 5 0 17 6 27 14 18 13 18 14 -7 9
-25 -5 -27 -3 -24 23 2 16 -1 35 -8 43 -8 11 -8 13 2 7 11 -7 17 5 13 28 -1 5
4 16 12 25 16 19 16 79 0 89 -17 11 -8 63 13 79 18 13 17 14 -8 9 -15 -2 -30
0 -34 5 -3 5 -2 9 3 8 21 -4 43 2 43 12 0 5 -4 7 -10 4 -5 -3 -10 -1 -10 4 0
6 -5 11 -11 11 -5 0 -7 -5 -3 -12 5 -7 3 -8 -6 -3 -10 6 -10 11 3 20 19 14 23
30 5 19 -7 -4 -8 -3 -4 5 9 14 29 3 23 -13 -3 -7 0 -13 7 -13 6 0 12 8 12 18
0 10 -3 16 -7 13 -4 -2 -9 3 -13 11 -3 8 -1 17 4 20 4 3 10 -1 13 -7 2 -7 4 3
3 24 -1 20 -4 34 -7 32 -15 -9 -17 27 -3 41 9 8 11 15 5 15 -5 0 -13 -4 -16
-10 -3 -5 -11 -10 -17 -10 -6 0 1 11 16 25 25 23 36 42 17 30 -16 -10 -42 25
-32 43 6 11 4 26 -6 47 -15 30 -15 30 5 10 10 -11 18 -23 16 -26 -2 -4 3 -10
11 -13 13 -5 14 -2 4 17 -6 12 -21 33 -33 47 -16 18 -16 21 -3 10 17 -12 18
-12 15 6 -2 14 2 18 17 17 11 -1 14 0 7 3 -6 3 -10 10 -7 14 3 5 0 12 -6 16
-8 5 -9 3 -4 -7 7 -11 6 -12 -7 -2 -8 7 -18 10 -21 6 -4 -3 -7 -1 -7 6 0 6 6
11 13 10 27 -3 36 2 30 18 -4 11 -3 14 6 9 7 -5 10 -2 9 6 -2 7 3 12 10 10 8
-1 11 2 7 8 -5 8 -11 7 -21 -1 -18 -15 -20 11 -1 30 10 11 10 13 0 7 -8 -5
-13 -1 -13 9 0 11 -5 15 -15 12 -8 -4 -17 -3 -19 2 -7 11 26 10 41 -1 12 -10
13 8 0 28 -3 6 -3 14 0 18 11 10 12 37 2 30 -5 -3 -6 -10 -3 -16 4 -7 2 -8 -4
-4 -8 5 -9 13 -2 25 5 10 6 21 3 25 -3 3 -1 6 6 6 9 0 9 4 -1 14 -7 8 -17 11
-22 8 -5 -3 -6 0 -2 6 4 7 1 12 -6 12 -10 0 -10 2 1 9 11 7 10 11 -5 20 -11 6
-13 11 -6 11 7 0 10 5 7 10 -3 6 -1 10 5 10 6 0 9 4 5 9 -3 5 -1 12 4 16 11 6
7 -27 -5 -47 -5 -7 -3 -8 6 -3 9 5 11 4 6 -3 -5 -8 -1 -10 9 -5 13 4 14 7 3
14 -10 6 -10 11 0 21 9 9 12 9 12 -2 0 -7 3 -10 6 -7 4 4 1 14 -7 23 -18 22
-23 64 -7 65 7 0 0 7 -17 14 -16 8 -24 14 -17 15 7 0 10 5 7 10 -4 6 -10 8
-15 5 -5 -3 -2 8 6 25 9 16 17 30 18 30 1 0 1 -13 0 -29 -1 -22 2 -28 13 -24
11 4 11 8 3 13 -9 6 -9 9 -1 14 6 4 8 13 4 19 -14 22 -12 41 5 60 9 10 12 18
7 17 -21 -5 -25 1 -16 18 10 19 -3 45 -29 55 -12 4 -11 6 3 6 10 1 16 5 12 11
-3 5 -13 6 -23 3 -18 -7 -17 -5 12 17 16 12 18 12 11 1 -5 -9 -4 -12 3 -7 6 3
9 -1 7 -11 -3 -21 12 -43 29 -43 6 0 5 4 -3 9 -21 13 -22 41 -3 42 12 0 10 3
-6 10 -13 5 -21 13 -17 19 9 14 -14 52 -27 44 -7 -5 -8 -2 -4 5 6 9 13 8 29
-6 20 -17 20 -17 -2 21 -12 22 -16 34 -8 28 11 -10 17 -9 28 5 9 11 10 14 2 9
-7 -4 -22 -1 -33 7 -18 12 -18 15 -5 20 8 4 15 14 15 22 0 9 5 13 10 10 6 -3
10 -2 10 3 0 5 -11 15 -25 22 -23 12 -35 32 -17 29 19 -3 23 2 12 16 -7 8 -17
12 -23 8 -6 -3 -7 -1 -3 6 4 6 11 9 16 6 5 -3 11 -1 15 5 3 6 -1 13 -9 16 -16
6 -23 25 -8 23 20 -3 23 3 11 18 -12 14 -12 16 0 9 9 -6 12 -5 9 5 -3 8 -11
13 -18 11 -10 -2 -11 0 -3 10 6 7 10 27 8 45 -1 20 2 30 8 26 6 -4 8 1 4 11
-5 11 -3 15 4 10 7 -4 10 -1 7 7 -3 8 -14 13 -24 12 -10 -1 -13 0 -6 3 6 3 9
11 6 16 -4 7 -2 8 4 4 7 -4 12 -1 12 9 0 9 -4 14 -8 11 -4 -2 -8 5 -9 17 0 12
1 16 4 9 3 -6 10 -9 15 -6 7 5 8 2 3 -5 -6 -10 -3 -11 12 -2 11 6 23 8 27 6 3
-3 4 -2 1 2 -3 4 -11 8 -18 9 -7 1 -23 7 -37 12 -18 8 -20 11 -7 11 9 1 17 8
17 16 0 8 -6 13 -12 11 -7 -1 -10 -1 -6 1 3 2 5 15 2 28 -2 13 2 25 9 28 8 3
14 -1 14 -9 0 -7 -3 -11 -7 -9 -4 2 -7 -2 -7 -10 0 -8 5 -11 11 -7 6 4 14 7
18 7 3 0 10 4 15 9 4 5 3 6 -4 2 -6 -3 -14 -2 -18 4 -3 5 -1 10 4 10 6 0 11 4
11 9 0 6 -9 8 -20 6 -11 -2 -23 1 -26 7 -4 7 -2 8 4 4 7 -4 12 -2 12 4 0 6 5
8 13 4 8 -5 8 -2 -2 9 -7 9 -11 17 -7 17 4 0 -1 11 -10 25 -15 23 -15 25 0 25
11 0 14 -5 10 -12 -4 -7 -3 -8 5 -4 14 9 5 26 -15 26 -17 0 -19 16 -3 26 8 5
6 10 -5 16 -9 5 -13 15 -10 21 4 7 3 8 -1 4 -12 -10 -15 -38 -4 -31 5 3 9 0 9
-5 0 -6 -5 -11 -11 -11 -8 0 -8 -5 1 -15 9 -10 9 -15 1 -15 -11 0 -12 4 -15
38 -2 28 -25 52 -44 45 -9 -3 -14 -3 -11 1 4 4 17 9 29 11 38 7 34 14 -7 12
-37 -2 -39 -1 -38 25 1 15 10 38 21 50 15 18 16 20 2 9 -16 -12 -22 -9 -19 11
0 4 -6 5 -15 1 -13 -5 -13 -8 -2 -15 9 -7 7 -8 -7 -2 -11 4 -30 7 -42 7 -13
-1 -20 3 -17 8 3 5 12 9 20 9 8 0 14 5 14 11 0 6 -9 9 -20 6 -11 -3 -18 0 -17
7 1 6 -3 10 -8 9 -6 -1 -12 7 -12 18 -1 10 3 19 8 19 6 0 7 -5 3 -12 -5 -7 -3
-8 6 -3 9 6 11 4 5 -5 -6 -9 -4 -11 5 -5 8 5 11 4 7 -2 -3 -5 0 -10 7 -10 7 0
13 6 13 14 0 7 -2 11 -5 8 -2 -2 -11 2 -19 10 -8 8 -28 15 -44 15 -16 0 -29 5
-29 11 0 5 -5 7 -12 3 -6 -4 -8 -3 -5 4 4 5 17 8 30 6 l22 -5 -22 10 c-13 6
-23 15 -23 21 0 5 -4 10 -10 10 -5 0 -7 -8 -4 -17 5 -17 5 -17 -6 0 -6 9 -16
17 -22 17 -6 0 -5 -7 3 -17 13 -16 12 -17 -4 -4 -13 11 -15 17 -6 28 10 11 14
11 20 1 5 -7 9 -8 9 -3 0 6 -5 17 -10 25 -6 10 -10 11 -10 3 0 -7 -7 -13 -15
-13 -8 0 -15 5 -15 11 0 5 6 7 13 3 8 -5 8 -2 -2 9 -15 18 -26 23 -16 7 8 -12
-5 -13 -25 0 -9 6 -17 5 -22 -3 -6 -9 -8 -9 -8 1 0 7 -5 10 -12 6 -7 -4 -8 -3
-4 5 4 6 11 9 16 6 4 -3 11 2 14 11 9 24 7 28 -9 14 -8 -7 -15 -9 -15 -4 0 5
-5 2 -10 -6 -7 -10 -10 -11 -10 -2 0 7 7 15 15 18 19 8 19 21 0 21 -8 0 -12
-4 -9 -9 3 -4 -2 -8 -11 -8 -9 0 -14 -4 -11 -8 3 -5 -1 -9 -9 -9 -8 0 -14 3
-13 6 2 19 -4 24 -12 11 -8 -12 -10 -12 -10 -1 0 11 -3 11 -17 0 -16 -13 -17
-12 -4 4 11 13 11 17 1 17 -8 0 -10 3 -7 6 4 4 12 2 19 -3 7 -6 21 -9 31 -8 9
2 15 -1 11 -6 -3 -5 -3 -9 0 -9 3 0 10 8 15 18 8 14 6 19 -5 19 -7 0 -14 -4
-14 -8 0 -4 -7 -6 -15 -5 -17 2 -33 16 -18 16 12 0 13 29 1 31 -4 1 -12 3 -18
4 -5 1 -17 3 -26 4 -8 0 -13 5 -10 9 3 5 -1 9 -8 9 -11 0 -12 -4 -3 -18 6 -9
18 -15 26 -12 14 4 14 4 1 -6 -8 -6 -10 -11 -4 -11 5 0 15 5 22 12 9 9 12 8
12 -5 0 -25 -47 -23 -55 3 -7 23 -21 26 -28 8 -3 -7 -4 2 -2 19 2 18 0 32 -3
32 -25 -4 -42 2 -36 13 4 6 3 8 -3 5 -6 -4 -16 0 -23 8 -7 8 -17 11 -24 7 -6
-4 -25 -7 -41 -7 -22 0 -31 4 -31 17 0 11 4 14 12 8 6 -6 15 -6 19 -2 5 4 5 2
2 -5 -5 -7 -1 -10 10 -9 9 2 18 8 19 15 1 6 0 7 -3 1 -8 -16 -23 -1 -17 18 5
15 4 15 -6 -1 -9 -14 -15 -15 -25 -7 -10 8 -16 7 -25 -7 -9 -16 -10 -15 -4 6
4 16 3 21 -5 17 -10 -7 -16 7 -12 28 1 5 -5 3 -14 -4 -15 -13 -15 -15 -1 -26
9 -6 16 -15 16 -19 0 -4 -7 -2 -15 5 -12 10 -15 10 -15 -1 0 -8 -7 -4 -16 9
-8 12 -20 22 -26 22 -7 0 -7 -4 1 -13 8 -10 7 -14 -3 -14 -8 0 -13 6 -12 13 3
22 15 27 31 14 8 -7 15 -8 15 -2 0 13 -26 23 -45 16 -8 -4 -15 -12 -15 -19 0
-8 -4 -16 -8 -19 -4 -2 -7 8 -6 22 2 37 -4 44 -28 31 -15 -8 -19 -8 -13 1 4 7
-1 13 -14 17 -12 3 -18 10 -14 17 3 6 0 6 -8 -1 -7 -7 -18 -13 -23 -13 -6 1 0
10 13 20 28 24 20 26 -13 4 -18 -11 -26 -12 -32 -3 -4 7 -3 9 4 5 6 -3 13 -2
16 3 4 5 -2 8 -11 6 -10 -1 -29 4 -42 12 -13 8 -20 10 -17 4 4 -6 0 -11 -8
-11 -9 0 -25 -9 -36 -20 -11 -11 -20 -16 -20 -12 0 4 5 13 11 19 8 8 5 13 -10
18 -12 3 -21 13 -21 21 0 10 6 8 21 -7 11 -11 25 -19 31 -17 17 6 29 46 16 54
-7 4 -8 3 -4 -4 4 -7 3 -12 -3 -12 -6 0 -8 -7 -5 -15 4 -11 2 -13 -9 -9 -9 3
-14 14 -12 25 2 10 -1 18 -8 16 -7 -1 -11 3 -10 9 2 11 -32 12 -43 1 -4 -4
-18 -7 -31 -7 -13 0 -22 -4 -19 -9 3 -5 -1 -14 -8 -20 -10 -9 -16 -9 -21 -1
-4 6 -1 9 5 8 14 -3 22 29 10 37 -5 3 -12 0 -16 -6 -5 -8 -3 -9 6 -4 9 5 11 4
6 -4 -6 -9 -11 -9 -22 0 -7 6 -11 16 -7 23 4 6 -1 5 -10 -3 -16 -13 -14 -37 2
-27 4 3 8 -1 8 -9 0 -10 -4 -12 -12 -5 -7 5 -15 7 -18 4 -3 -3 -4 9 -2 27 3
26 2 30 -6 17 -5 -9 -16 -15 -24 -12 -8 4 -12 11 -8 18 4 7 1 6 -9 -2 -12 -10
-17 -10 -27 1 -6 8 -7 18 -3 22 4 5 1 4 -7 0 -11 -6 -13 -4 -7 11 6 15 5 16
-5 7 -10 -10 -9 -15 1 -28 8 -10 9 -15 2 -15 -12 0 -34 35 -27 42 3 3 -2 5
-10 5 -8 0 -12 -4 -10 -7 3 -4 -6 -7 -20 -7 -15 0 -22 4 -18 11 3 6 3 8 -2 4
-4 -4 -15 -2 -23 5 -13 9 -14 9 -8 0 4 -8 2 -13 -4 -13 -6 0 -9 -4 -5 -9 3 -6
18 -9 33 -7 15 1 33 -2 40 -7 8 -6 12 -5 12 4 1 9 4 7 11 -4 8 -13 8 -22 1
-29 -7 -7 -14 -4 -21 10 -11 21 -51 23 -76 2 -10 -8 -15 -8 -21 1 -4 7 -3 9 4
5 6 -3 13 -2 17 3 7 13 -25 30 -45 24 -13 -4 -13 -3 0 6 8 5 17 8 21 5 4 -2
10 0 13 5 4 5 -5 8 -20 6 -18 -2 -24 1 -20 12 5 11 0 13 -17 8 -17 -5 -19 -4
-7 4 11 8 11 11 3 12 -28 3 -32 4 -40 12 -4 5 -1 7 7 5 9 -2 14 4 14 14 -1 14
2 15 16 8 28 -15 32 -12 13 8 -10 10 -25 17 -33 14 -10 -2 -9 1 3 11 11 9 26
13 35 11 12 -4 12 -2 -2 7 -15 9 -24 9 -40 -1 -18 -10 -19 -10 -8 1 10 11 8
17 -10 32 -13 10 -17 16 -10 12 7 -4 18 -2 25 4 7 5 19 6 26 2 9 -6 10 -11 2
-15 -6 -4 -11 -2 -11 4 0 6 -5 8 -11 4 -11 -6 5 -23 22 -24 17 0 16 30 -1 50
-13 15 -19 17 -23 8 -4 -10 -7 -10 -16 -1 -6 7 -8 11 -5 8 4 -3 13 0 21 6 10
9 10 15 2 25 -6 8 -8 14 -3 14 5 0 2 5 -6 11 -13 9 -12 10 3 5 12 -4 17 0 17
14 0 11 4 20 10 20 5 0 9 4 7 9 -1 5 7 17 18 26 20 16 20 16 -2 6 -12 -7 -24
-7 -27 -2 -3 5 1 11 9 15 8 3 15 11 14 18 0 10 -2 10 -6 1 -7 -18 -20 -16 -20
2 0 8 4 15 9 15 4 0 8 8 8 18 -1 15 -2 15 -12 -3 -15 -24 -18 -86 -5 -78 5 3
1 -6 -8 -21 -14 -22 -35 -28 -35 -10 0 3 4 3 9 0 5 -3 12 1 15 10 5 13 2 15
-13 11 -15 -3 -18 -1 -14 11 5 11 3 13 -7 7 -9 -6 -11 -4 -5 4 5 9 10 10 18 2
15 -15 24 -14 24 3 0 8 -11 19 -24 25 -14 7 -21 16 -17 23 11 17 13 59 3 52
-5 -3 -7 -9 -4 -14 3 -5 0 -12 -6 -16 -8 -4 -9 -3 -5 4 4 7 2 12 -4 12 -6 0
-9 4 -6 8 3 5 -1 9 -9 9 -8 0 -12 -4 -9 -9 6 -10 -10 -11 -20 -1 -11 12 -56
11 -56 -1 0 -6 -5 -4 -10 4 -9 13 -10 13 -10 0 0 -9 -3 -11 -8 -5 -9 13 -35
18 -27 5 3 -5 1 -10 -4 -10 -6 0 -11 3 -11 8 0 4 -27 8 -60 8 -38 1 -57 -3
-53 -9 4 -6 1 -7 -8 -1 -21 13 -399 13 -399 0 0 -7 -3 -8 -8 -1 -11 16 -45 19
-37 3 6 -10 5 -11 -6 0 -7 6 -17 12 -22 12 -4 0 -5 -6 -1 -12 5 -9 2 -9 -9 1
-14 11 -20 11 -34 0 -9 -8 -14 -9 -10 -3 4 8 -10 10 -46 9 -65 -4 -65 -4 -49
-14 11 -7 10 -9 -3 -14 -9 -4 -14 -3 -11 1 2 4 1 14 -4 21 -6 10 -10 8 -15 -9z
m-83 -222 c-6 -6 -16 -7 -22 -3 -9 6 -9 9 1 16 17 10 34 0 21 -13z m18 -62 c0
-3 -4 -8 -10 -11 -5 -3 -10 -1 -10 4 0 6 5 11 10 11 6 0 10 -2 10 -4z m1044
-44 c3 -5 -1 -9 -9 -9 -8 0 -12 4 -9 9 3 4 7 8 9 8 2 0 6 -4 9 -8z m16 -36 c0
-2 -7 -7 -16 -10 -8 -3 -12 -2 -9 4 6 10 25 14 25 6z m40 -76 c0 -5 -5 -10
-11 -10 -5 0 -7 5 -4 10 3 6 8 10 11 10 2 0 4 -4 4 -10z m-1321 -74 c-3 -3
-11 5 -18 17 -13 21 -12 21 5 5 10 -10 16 -20 13 -22z m1442 1 c-10 -9 -11 -8
-5 6 3 10 9 15 12 12 3 -3 0 -11 -7 -18z m112 8 c4 0 7 -3 7 -7 0 -5 0 -12 0
-18 0 -5 -4 -10 -10 -10 -5 0 -9 5 -7 12 2 11 -2 13 -35 17 -9 1 -9 4 2 10 8
6 19 7 25 3 5 -4 13 -7 18 -7z m233 -38 c6 -9 4 -9 -8 1 -14 11 -19 10 -32 -9
-15 -22 -15 -22 -12 7 2 16 4 30 5 32 2 6 40 -19 47 -31z m-271 13 c3 -6 -1
-7 -9 -4 -18 7 -21 14 -7 14 6 0 13 -4 16 -10z m205 -9 c0 -6 -4 -12 -8 -15
-5 -3 -9 1 -9 9 0 8 4 15 9 15 4 0 8 -4 8 -9z m-2098 -73 c-8 -8 -9 -4 -5 13
4 13 8 18 11 10 2 -7 -1 -18 -6 -23z m2249 18 c5 3 9 0 9 -6 0 -7 -7 -9 -16
-6 -9 3 -18 6 -20 6 -3 0 -2 5 2 12 6 9 9 9 12 0 2 -7 8 -10 13 -6z m-2177
-14 c2 -4 -5 -9 -17 -9 -17 -2 -19 0 -7 7 18 12 18 12 24 2z m2590 -164 c-4
-6 2 -8 14 -4 26 8 37 -8 17 -24 -8 -7 -15 -8 -15 -2 0 5 -13 15 -30 22 -29
12 -38 29 -23 43 9 10 44 -24 37 -35z m-3124 -9 c0 -5 -5 -8 -12 -6 -7 1 -12
-3 -13 -10 0 -6 -4 -15 -9 -20 -5 -5 -6 -3 -2 5 4 6 2 12 -3 12 -6 0 -11 -5
-11 -12 0 -6 -2 -9 -5 -6 -9 8 6 38 16 32 5 -3 12 2 15 10 6 16 24 13 24 -5z
m3081 -6 c13 -16 12 -17 -3 -4 -17 13 -22 21 -14 21 2 0 10 -8 17 -17z m-3277
-118 c4 -13 2 -13 -14 -5 -12 7 -21 7 -25 0 -3 -5 0 -10 7 -10 10 0 9 -3 -2
-9 -23 -15 -33 -1 -14 20 21 23 40 24 48 4z m3601 -53 c-3 -3 -11 0 -18 7 -9
10 -8 11 6 5 10 -3 15 -9 12 -12z m-3648 -17 c0 -8 -4 -12 -9 -9 -5 3 -6 10
-3 15 9 13 12 11 12 -6z m3738 -75 c3 -5 1 -10 -4 -10 -6 0 -11 5 -11 10 0 6
2 10 4 10 3 0 8 -4 11 -10z m-3977 -107 c-1 -12 -6 -23 -11 -23 -5 0 -7 6 -4
14 3 7 1 18 -4 23 -6 6 -4 10 5 10 10 0 15 -9 14 -24z m4180 -128 c-3 -3 -9 2
-12 12 -6 14 -5 15 5 6 7 -7 10 -15 7 -18z m-4248 -15 c-6 -11 -13 -20 -16
-20 -2 0 0 9 6 20 6 11 13 20 16 20 2 0 0 -9 -6 -20z m4284 -48 c3 -5 -1 -9
-9 -9 -8 0 -12 4 -9 9 3 4 7 8 9 8 2 0 6 -4 9 -8z m17 -29 c-10 -4 -11 -7 -1
-13 8 -5 3 -7 -14 -7 -24 2 -25 3 -9 15 9 6 22 12 27 11 6 0 5 -3 -3 -6z
m-4373 -80 c-2 -11 2 -17 10 -15 8 1 11 -2 7 -8 -4 -7 -13 -7 -26 1 -16 8 -18
13 -8 25 15 19 21 18 17 -3z m6 -310 c-11 -11 -12 -18 -4 -23 8 -5 8 -9 -2
-12 -10 -4 -14 2 -13 22 0 16 3 26 7 23 5 -2 8 1 8 7 0 6 5 8 10 5 6 -4 4 -12
-6 -22z m-2 -100 c-2 -13 -9 -23 -14 -23 -5 0 -6 5 -3 10 4 6 2 16 -4 23 -7 9
-5 13 8 13 13 0 16 -6 13 -23z m4991 -188 c4 0 6 -4 5 -10 -2 -5 -6 -9 -10 -7
-5 1 -8 -3 -8 -9 0 -5 -4 -8 -9 -4 -6 3 -9 14 -8 25 1 10 6 16 12 12 5 -4 13
-7 18 -7z m-615 -20 c-3 -3 -9 2 -12 12 -6 14 -5 15 5 6 7 -7 10 -15 7 -18z
m575 -30 c-3 -9 -8 -14 -10 -11 -3 3 -2 9 2 15 9 16 15 13 8 -4z m-571 -73
c-7 -2 -9 -9 -6 -14 4 -6 2 -8 -4 -4 -5 3 -12 1 -14 -6 -3 -7 -7 -5 -11 6 -5
11 -3 15 5 10 7 -5 9 -2 5 8 -4 12 -1 14 16 10 12 -3 16 -7 9 -10z m-4374 -35
c8 -10 6 -13 -7 -13 -11 0 -17 6 -14 13 3 7 6 13 8 13 1 0 7 -6 13 -13z m5197
4 c-3 -2 -16 -6 -28 -8 -15 -2 -18 0 -9 5 14 9 45 12 37 3z m-820 -20 c-4 -3
-11 -7 -16 -7 -5 -1 -12 -2 -16 -3 -4 0 2 -8 13 -17 18 -14 18 -15 -4 -4 -23
11 -23 13 -6 31 9 10 21 16 26 13 5 -3 6 -9 3 -13z m232 -6 c0 -8 -4 -12 -9
-9 -5 3 -6 10 -3 15 9 13 12 11 12 -6z m-4601 -46 c19 -22 19 -22 -3 -8 -13 8
-23 17 -23 21 0 12 6 9 26 -13z m5244 -89 c0 -5 -5 -10 -11 -10 -5 0 -7 5 -4
10 3 6 8 10 11 10 2 0 4 -4 4 -10z m-5255 -20 c3 -5 2 -10 -4 -10 -5 0 -13 5
-16 10 -3 6 -2 10 4 10 5 0 13 -4 16 -10z m4365 -15 c7 -9 8 -15 2 -15 -5 0
-12 7 -16 15 -3 8 -4 15 -2 15 2 0 9 -7 16 -15z m900 -25 c0 -5 -5 -10 -11
-10 -5 0 -7 5 -4 10 3 6 8 10 11 10 2 0 4 -4 4 -10z m-695 -49 c3 -5 2 -12 -3
-15 -5 -3 -9 1 -9 9 0 17 3 19 12 6z m-199 -88 c-2 -9 -9 -19 -17 -21 -11 -3
-11 -1 1 7 8 6 11 11 7 11 -5 0 -5 5 -2 10 9 15 14 12 11 -7z m795 -36 c-10
-9 -11 -8 -5 6 3 10 9 15 12 12 3 -3 0 -11 -7 -18z m-811 -7 c0 -5 -2 -10 -4
-10 -3 0 -8 5 -11 10 -3 6 -1 10 4 10 6 0 11 -4 11 -10z m17 -17 c-4 -3 -2
-12 5 -20 8 -11 7 -12 -6 -7 -9 3 -16 9 -16 13 0 9 11 21 18 21 3 0 2 -3 -1
-7z m-4352 -63 c3 -6 -1 -7 -9 -4 -18 7 -21 14 -7 14 6 0 13 -4 16 -10z m4712
-5 c0 -8 -4 -12 -9 -9 -5 3 -6 10 -3 15 9 13 12 11 12 -6z m-370 -7 c-2 -7 -1
-20 4 -29 4 -8 4 -22 -1 -29 -7 -12 -9 -10 -8 5 0 11 0 25 -2 30 -4 15 -1 35
6 35 3 0 4 -6 1 -12z m693 -29 c0 -5 -5 -9 -12 -9 -6 0 -8 3 -5 7 4 3 1 13 -6
22 -11 14 -10 14 6 2 9 -7 17 -17 17 -22z m-312 -4 c-10 -22 -28 -35 -28 -20
0 5 33 45 37 45 1 0 -3 -11 -9 -25z m275 -51 c-4 -12 -8 -13 -14 -3 -9 15 -2
32 11 24 5 -3 6 -13 3 -21z m-28 -12 c-3 -3 -11 0 -18 7 -9 10 -8 11 6 5 10
-3 15 -9 12 -12z m-628 -199 c-9 -2 -14 -9 -11 -15 4 -7 2 -8 -5 -4 -15 10 -4
26 17 25 15 -1 15 -2 -1 -6z m17 -114 c-8 -13 -34 -11 -34 2 0 6 7 9 14 6 10
-4 13 -1 9 8 -3 8 -10 12 -16 8 -6 -4 -7 -1 -2 7 6 10 11 9 21 -5 7 -10 11
-22 8 -26z m606 -9 c-8 -5 -19 -10 -25 -10 -5 0 -3 5 5 10 8 5 20 10 25 10 6
0 3 -5 -5 -10z m-7 -28 c4 9 6 9 6 1 2 -20 -16 -24 -30 -5 -13 15 -12 16 3 4
13 -10 17 -10 21 0z m-163 -36 c0 -2 -7 -9 -15 -16 -13 -11 -14 -10 -9 4 5 14
24 23 24 12z m176 -9 c4 -4 0 -7 -9 -7 -9 0 -18 4 -21 9 -7 10 20 9 30 -2z
m-631 -57 c-3 -5 -12 -10 -18 -10 -7 0 -6 4 3 10 19 12 23 12 15 0z m460 -20
c3 -5 0 -7 -7 -5 -17 7 -22 -36 -5 -47 9 -6 9 -8 0 -8 -7 0 -13 -9 -13 -20 0
-11 -4 -20 -10 -20 -5 0 -7 7 -4 15 4 8 1 15 -6 15 -9 0 -9 4 1 17 11 13 12
17 1 21 -10 3 -9 8 4 23 19 21 30 24 39 9z m160 -30 c16 -18 16 -20 2 -20 -10
0 -16 6 -14 13 1 6 -4 11 -11 9 -8 -1 -11 2 -7 8 8 13 9 13 30 -10z m-610 -64
c0 -19 -3 -38 -8 -42 -4 -4 -7 -2 -7 5 0 7 -5 9 -12 5 -10 -6 -10 -4 0 8 7 9
12 20 11 24 -3 18 1 34 9 34 4 0 8 -15 7 -34z m445 -25 c0 -5 -7 -11 -14 -14
-10 -4 -13 -1 -9 9 6 15 23 19 23 5z m-4797 -55 c4 -10 1 -13 -8 -9 -8 3 -12
9 -9 14 7 12 11 11 17 -5z m4814 -91 c0 -8 -4 -12 -9 -9 -5 3 -6 10 -3 15 9
13 12 11 12 -6z m-4814 -29 c4 -10 1 -13 -9 -9 -20 7 -14 -20 6 -29 12 -5 11
-7 -3 -7 -10 -1 -15 -5 -12 -11 3 -5 2 -10 -4 -10 -11 0 -9 49 2 68 10 16 14
15 20 -2z m4344 -45 c0 -11 -7 -17 -14 -14 -9 4 -9 8 0 19 16 17 16 17 14 -5z
m-4347 -101 c0 -5 -2 -10 -4 -10 -3 0 -8 5 -11 10 -3 6 -1 10 4 10 6 0 11 -4
11 -10z m4354 -8 c3 -5 -1 -9 -9 -9 -8 0 -12 4 -9 9 3 4 7 8 9 8 2 0 6 -4 9
-8z m2 -40 c1 -7 0 -8 -3 -2 -2 5 -9 8 -14 4 -5 -3 -9 0 -9 6 0 15 23 7 26 -8z
m96 -4 c-9 -9 -9 -15 1 -27 10 -14 10 -14 -4 -4 -12 10 -18 10 -30 0 -7 -6 -3
0 10 16 14 15 27 27 30 27 3 0 0 -5 -7 -12z m48 -22 c0 -3 -4 -8 -10 -11 -5
-3 -10 -1 -10 4 0 6 5 11 10 11 6 0 10 -2 10 -4z m296 -20 c0 -14 -5 -21 -9
-17 -4 4 -5 15 -1 24 9 24 12 21 10 -7z m-16 -40 c0 -3 -4 -8 -10 -11 -5 -3
-10 -1 -10 4 0 6 5 11 10 11 6 0 10 -2 10 -4z m300 -67 c0 -5 -4 -9 -10 -9 -5
0 -10 6 -10 13 0 8 -4 7 -10 -3 -5 -8 -10 -10 -10 -4 0 6 3 13 6 17 8 8 34 -3
34 -14z m-56 3 c2 -4 -7 -8 -20 -8 -13 -1 -24 1 -24 5 0 9 38 12 44 3z m71
-11 c-3 -6 3 -14 12 -20 10 -6 14 -10 8 -11 -19 0 -38 18 -31 29 4 6 9 11 12
11 3 0 3 -4 -1 -9z m-5093 -26 c0 -5 -5 -10 -11 -11 -8 -2 -7 -1 0 3 8 4 7 8
-2 15 -11 8 -11 9 -1 6 8 -2 14 -8 14 -13z m10 -50 c3 -13 1 -22 -3 -19 -9 5
-13 44 -5 44 2 0 6 -11 8 -25z m5105 -80 c0 -8 -4 -12 -9 -9 -5 3 -6 10 -3 15
9 13 12 11 12 -6z m-5117 -16 c0 -5 -4 -9 -8 -9 -5 0 -9 7 -9 15 0 8 4 12 9 9
4 -3 8 -9 8 -15z m16 -26 c-2 -10 -11 -19 -22 -20 -18 -3 -18 -2 1 6 11 5 16
10 12 10 -5 1 -5 6 -2 11 9 15 14 12 11 -7z m5121 2 c-4 -8 -2 -17 4 -20 12
-8 2 -25 -14 -25 -7 0 -6 4 3 10 9 6 10 10 3 10 -6 0 -11 9 -10 20 1 11 5 20
10 20 5 0 7 -7 4 -15z m-5137 -66 c0 -5 -4 -9 -8 -9 -5 0 -9 7 -9 15 0 8 4 12
9 9 4 -3 8 -9 8 -15z m0 -29 c0 -5 -4 -10 -10 -10 -5 0 -10 5 -10 10 0 6 5 10
10 10 6 0 10 -4 10 -10z m0 -29 c0 -6 -4 -12 -8 -15 -5 -3 -9 1 -9 9 0 8 4 15
9 15 4 0 8 -4 8 -9z m7 -137 c-3 -3 -12 -4 -19 -1 -8 3 -5 6 6 6 11 1 17 -2
13 -5z m5138 -82 c-3 -3 -15 -6 -27 -7 -18 -2 -19 -1 -5 10 9 7 13 16 9 21 -4
4 1 2 11 -5 9 -8 15 -16 12 -19z m-17 -57 c-6 -13 -15 -22 -21 -18 -5 3 -5 8
2 13 7 4 11 11 10 16 -3 17 1 25 11 19 6 -4 5 -15 -2 -30z m-5130 -16 c-7 -5
-9 -9 -3 -9 5 0 3 -6 -3 -12 -10 -10 -15 -10 -22 2 -11 18 6 41 27 33 12 -5
12 -7 1 -14z m5122 -24 c0 -2 -9 -3 -19 -2 -11 0 -18 5 -15 9 4 6 34 0 34 -7z
m-270 -65 c9 -5 19 -5 27 2 10 8 12 7 7 -6 -3 -9 -9 -16 -13 -16 -11 1 -56 29
-46 29 6 1 17 -3 25 -9z m-115 -10 c3 -5 1 -10 -4 -10 -6 0 -11 5 -11 10 0 6
2 10 4 10 3 0 8 -4 11 -10z m-35 -20 c0 -5 -5 -10 -11 -10 -5 0 -7 5 -4 10 3
6 8 10 11 10 2 0 4 -4 4 -10z m-4726 -25 c-4 -8 -8 -15 -10 -15 -2 0 -4 7 -4
15 0 8 4 15 10 15 5 0 7 -7 4 -15z m4706 -14 c0 -6 -4 -12 -8 -15 -5 -3 -9 1
-9 9 0 8 4 15 9 15 4 0 8 -4 8 -9z m-4710 -15 c0 -2 -8 -10 -17 -17 -16 -13
-17 -12 -4 4 13 16 21 21 21 13z m4680 -10 c0 -2 -7 -7 -16 -10 -8 -3 -12 -2
-9 4 6 10 25 14 25 6z m-4750 -36 c-9 -6 -7 -11 6 -19 17 -9 17 -10 2 -11 -10
0 -18 -5 -18 -11 0 -5 4 -8 9 -4 5 3 13 0 17 -6 4 -7 3 -9 -4 -5 -5 3 -12 1
-14 -6 -2 -6 -10 -8 -16 -4 -9 5 -9 13 -2 26 6 11 10 23 9 27 -4 21 2 34 12
27 8 -5 8 -9 -1 -14z m-75 -200 c-3 -5 1 -10 9 -10 8 0 18 -5 22 -12 4 -6 3
-9 -2 -6 -5 3 -17 8 -27 11 -15 6 -16 27 -1 27 3 0 2 -4 -1 -10z m5 -55 c14
-18 13 -19 -1 -8 -9 7 -19 10 -23 6 -4 -4 -4 1 0 10 3 10 7 17 8 15 1 -2 8
-12 16 -23z m1 -158 c-10 -9 -11 -8 -5 6 3 10 9 15 12 12 3 -3 0 -11 -7 -18z
m4592 -122 c-3 -9 -8 -14 -10 -11 -3 3 -2 9 2 15 9 16 15 13 8 -4z m-4526 -12
c-4 -3 -3 -11 3 -17 6 -8 3 -12 -10 -12 -15 0 -16 4 -9 18 5 10 13 18 16 18 3
0 3 -3 0 -7z m4476 -48 c-3 -9 -8 -14 -10 -11 -3 3 -2 9 2 15 9 16 15 13 8 -4z
m-4402 -58 c-10 -9 -11 -8 -5 6 3 10 9 15 12 12 3 -3 0 -11 -7 -18z m16 -24
c-9 -2 -15 -9 -11 -14 3 -5 9 -7 14 -4 11 7 20 -19 10 -34 -5 -9 -10 -10 -14
-2 -4 6 -1 11 6 11 7 0 2 7 -10 16 -24 17 -21 35 6 33 15 -1 15 -2 -1 -6z
m4373 -5 c0 -8 -16 -12 -33 -9 -4 1 -5 -10 -3 -24 3 -13 0 -28 -6 -31 -10 -7
-28 13 -28 31 0 6 4 4 9 -4 5 -8 11 -9 15 -3 4 6 -2 15 -11 21 -17 10 -17 10
0 11 9 0 17 4 17 9 0 6 9 9 20 8 11 -1 20 -5 20 -9z m-4307 -23 c-3 -9 -8 -14
-10 -11 -3 3 -2 9 2 15 9 16 15 13 8 -4z m4227 -5 c0 -5 -2 -10 -4 -10 -3 0
-8 5 -11 10 -3 6 -1 10 4 10 6 0 11 -4 11 -10z m-2889 -17 c13 -16 12 -17 -3
-4 -10 7 -18 15 -18 17 0 8 8 3 21 -13z m800 0 c13 -16 12 -17 -3 -4 -10 7
-18 15 -18 17 0 8 8 3 21 -13z m724 8 c3 -5 2 -12 -3 -15 -5 -3 -9 1 -9 9 0
17 3 19 12 6z m80 -9 c-3 -3 -11 0 -18 7 -9 10 -8 11 6 5 10 -3 15 -9 12 -12z
m845 12 c0 -8 -19 -13 -24 -6 -3 5 1 9 9 9 8 0 15 -2 15 -3z m411 -11 c13 -17
13 -17 -6 -3 -11 8 -22 16 -24 17 -2 2 0 3 6 3 6 0 17 -8 24 -17z m-934 -8 c0
-8 -4 -12 -9 -9 -5 3 -6 10 -3 15 9 13 12 11 12 -6z m-2797 1 c0 -2 -7 -7 -16
-10 -8 -3 -12 -2 -9 4 6 10 25 14 25 6z m3460 -6 c0 -5 -2 -10 -4 -10 -3 0 -8
5 -11 10 -3 6 -1 10 4 10 6 0 11 -4 11 -10z m85 0 c-3 -5 -12 -10 -18 -10 -7
0 -6 4 3 10 19 12 23 12 15 0z m-1667 -25 c-3 -3 -9 2 -12 12 -6 14 -5 15 5 6
7 -7 10 -15 7 -18z m-323 -3 c-3 -3 -11 0 -18 7 -9 10 -8 11 6 5 10 -3 15 -9
12 -12z m-208 -16 c-3 -7 0 -19 6 -25 8 -8 8 -11 0 -11 -6 0 -13 6 -16 13 -4
13 2 37 10 37 3 0 3 -6 0 -14z m57 2 c-3 -4 -9 -8 -15 -8 -5 0 -9 4 -9 8 0 5
7 9 15 9 8 0 12 -4 9 -9z m382 -16 c-17 -16 -18 -16 -5 5 7 12 15 20 18 17 3
-2 -3 -12 -13 -22z m-412 2 c3 -8 2 -12 -4 -9 -6 3 -10 10 -10 16 0 14 7 11
14 -7z m-94 -4 c0 -5 -4 -10 -10 -10 -5 0 -10 5 -10 10 0 6 5 10 10 10 6 0 10
-4 10 -10z m620 6 c0 -3 -4 -8 -10 -11 -5 -3 -10 -1 -10 4 0 6 5 11 10 11 6 0
10 -2 10 -4z"/>
<path d="M4020 4841 c0 -10 19 -25 25 -20 1 2 -3 10 -11 17 -8 7 -14 8 -14 3z"/>
<path d="M305 1061 c-3 -5 -2 -12 3 -15 5 -3 9 1 9 9 0 17 -3 19 -12 6z"/>
<path d="M3045 5590 c-3 -6 1 -7 9 -4 18 7 21 14 7 14 -6 0 -13 -4 -16 -10z"/>
<path d="M1953 5583 c4 -3 1 -13 -6 -22 -11 -14 -10 -14 6 -2 20 15 22 31 5
31 -6 0 -8 -3 -5 -7z"/>
<path d="M3050 5573 c-22 -9 -31 -26 -17 -35 21 -14 30 -9 16 9 -8 9 -9 14 -3
10 7 -4 14 0 18 8 3 8 4 15 3 14 -1 0 -9 -3 -17 -6z"/>
<path d="M1946 5441 c-12 -13 -14 -21 -6 -26 6 -4 14 -4 17 -1 4 3 1 6 -6 6
-7 0 -9 5 -6 10 4 6 10 8 15 5 5 -3 11 -1 14 4 12 19 -12 20 -28 2z"/>
<path d="M3071 5416 c-8 -10 -9 -16 -1 -21 6 -3 8 -10 6 -14 -3 -4 4 -12 14
-19 14 -9 21 -9 26 0 4 7 3 8 -4 4 -7 -4 -17 3 -24 19 -10 22 -9 28 3 36 8 5
9 9 3 9 -6 0 -17 -6 -23 -14z"/>
<path d="M3095 5400 c3 -5 8 -10 11 -10 2 0 4 5 4 10 0 6 -5 10 -11 10 -5 0
-7 -4 -4 -10z"/>
<path d="M3087 5259 c7 -7 15 -10 18 -7 3 3 -2 9 -12 12 -14 6 -15 5 -6 -5z"/>
<path d="M1944 5252 c-6 -4 -11 -14 -11 -24 0 -13 4 -14 19 -5 10 7 18 15 18
19 0 11 -15 17 -26 10z"/>
<path d="M3073 5203 c9 -8 47 -11 47 -4 0 5 -11 9 -25 9 -14 0 -24 -2 -22 -5z"/>
<path d="M1876 5155 c4 -8 11 -15 16 -15 6 0 5 6 -2 15 -7 8 -14 15 -16 15 -2
0 -1 -7 2 -15z"/>
<path d="M3335 5149 c-4 -6 -5 -12 -2 -15 2 -3 7 2 10 11 7 17 1 20 -8 4z"/>
<path d="M1750 5140 c0 -5 5 -10 10 -10 6 0 10 5 10 10 0 6 -4 10 -10 10 -5 0
-10 -4 -10 -10z"/>
<path d="M1641 5084 c0 -11 3 -14 6 -6 3 7 2 16 -1 19 -3 4 -6 -2 -5 -13z"/>
<path d="M1480 5076 c7 -7 13 -7 20 0 6 6 3 10 -10 10 -13 0 -16 -4 -10 -10z"/>
<path d="M1528 5073 c-5 -20 -4 -21 18 -11 13 6 24 16 24 21 0 5 -6 4 -14 -2
-11 -9 -15 -9 -18 1 -3 7 -7 3 -10 -9z"/>
<path d="M1586 5068 c3 -5 10 -6 15 -3 13 9 11 12 -6 12 -8 0 -12 -4 -9 -9z"/>
<path d="M1420 5041 c0 -6 4 -13 10 -16 6 -3 7 1 4 9 -7 18 -14 21 -14 7z"/>
<path d="M3630 5041 c0 -6 4 -13 10 -16 6 -3 7 1 4 9 -7 18 -14 21 -14 7z"/>
<path d="M1355 5020 c3 -5 8 -10 11 -10 2 0 4 5 4 10 0 6 -5 10 -11 10 -5 0
-7 -4 -4 -10z"/>
<path d="M3747 4996 c-8 -19 28 -43 38 -25 4 6 4 13 1 16 -3 4 -6 0 -6 -8 -1
-8 -7 -3 -14 10 -11 19 -14 21 -19 7z"/>
<path d="M1260 4993 c0 -15 19 -37 26 -31 3 4 -1 14 -10 23 -9 9 -16 13 -16 8z"/>
<path d="M3806 4978 c-3 -7 -4 -21 -3 -30 0 -15 3 -15 16 -6 26 20 27 21 9 15
-12 -4 -18 -1 -18 9 0 9 5 12 12 8 7 -4 8 -3 4 4 -9 15 -16 15 -20 0z"/>
<path d="M1150 4960 c0 -5 5 -10 10 -10 6 0 10 5 10 10 0 6 -4 10 -10 10 -5 0
-10 -4 -10 -10z"/>
<path d="M1077 4913 c6 -15 4 -16 -8 -6 -9 8 -20 9 -29 3 -8 -6 -10 -10 -5
-11 6 0 20 -2 33 -5 23 -4 32 19 12 31 -6 4 -7 -1 -3 -12z"/>
<path d="M819 4796 c6 -7 9 -15 6 -18 -3 -2 1 -5 9 -5 20 0 13 30 -8 33 -13 2
-14 -1 -7 -10z"/>
<path d="M756 4751 c-4 -6 -2 -11 4 -11 6 0 8 -5 5 -10 -5 -8 -11 -7 -21 1 -8
6 -16 10 -19 8 -2 -3 4 -10 15 -16 22 -14 44 4 31 26 -6 9 -11 10 -15 2z"/>
<path d="M4315 4680 c-3 -5 -1 -10 4 -10 6 0 11 5 11 10 0 6 -2 10 -4 10 -3 0
-8 -4 -11 -10z"/>
<path d="M4536 4473 c-6 -14 -5 -15 5 -6 7 7 10 15 7 18 -3 3 -9 -2 -12 -12z"/>
<path d="M4584 4409 c-8 -13 2 -22 25 -24 11 -1 17 3 14 11 -6 17 -31 25 -39
13z"/>
<path d="M366 4355 c4 -8 8 -15 10 -15 2 0 4 7 4 15 0 8 -4 15 -10 15 -5 0 -7
-7 -4 -15z"/>
<path d="M305 4340 c-3 -6 1 -7 9 -4 18 7 21 14 7 14 -6 0 -13 -4 -16 -10z"/>
<path d="M4635 4340 c3 -5 8 -10 11 -10 2 0 4 5 4 10 0 6 -5 10 -11 10 -5 0
-7 -4 -4 -10z"/>
<path d="M316 4314 c-11 -8 -16 -14 -10 -14 13 0 39 18 34 24 -3 2 -14 -2 -24
-10z"/>
<path d="M286 4187 c-16 -12 -16 -14 -3 -14 9 0 18 6 21 14 3 7 4 13 3 13 -2
0 -11 -6 -21 -13z"/>
<path d="M4698 4098 c9 -9 9 -15 0 -27 -7 -9 -9 -13 -4 -9 4 4 19 3 33 -3 16
-6 22 -6 18 1 -3 6 -14 10 -23 11 -10 0 -12 3 -5 6 10 3 10 8 -1 19 -8 8 -18
14 -22 14 -5 0 -3 -5 4 -12z"/>
<path d="M274 4005 c-10 -8 -14 -15 -9 -14 25 3 27 -3 9 -23 -12 -14 -13 -18
-3 -10 9 6 18 10 20 7 3 -2 5 9 4 25 0 17 0 30 -1 30 0 0 -9 -7 -20 -15z"/>
<path d="M4696 3995 c-3 -8 -1 -15 4 -15 6 0 10 5 10 11 0 5 5 7 12 3 7 -4 8
-3 4 4 -10 16 -23 15 -30 -3z"/>
<path d="M4714 3969 c-3 -6 -2 -15 3 -20 5 -5 9 -1 9 11 0 23 -2 24 -12 9z"/>
<path d="M4693 3925 c-15 -29 -10 -66 11 -77 16 -9 17 -8 5 14 l-12 23 24 -20
c13 -11 19 -13 13 -5 -6 8 -10 23 -9 33 3 15 1 16 -11 6 -8 -6 -18 -9 -21 -5
-4 4 -1 11 6 15 7 5 11 15 9 22 -3 10 -8 8 -15 -6z"/>
<path d="M4693 3823 c4 -3 2 -12 -4 -20 -6 -7 -10 -13 -8 -14 31 -6 40 -6 46
3 3 6 1 8 -5 4 -6 -3 -13 -2 -17 4 -3 5 2 10 12 10 15 0 16 2 3 10 -17 11 -37
13 -27 3z"/>
<path d="M4685 3761 c-3 -5 -1 -13 5 -16 8 -5 8 -11 0 -20 -8 -9 -8 -15 0 -20
5 -3 10 -4 10 0 0 3 9 1 19 -5 14 -7 22 -7 27 2 4 6 3 8 -3 5 -6 -4 -19 1 -29
9 -14 12 -15 14 -3 11 9 -3 16 1 16 8 0 8 -3 14 -6 13 -3 0 -13 0 -21 1 -13 1
-13 2 0 11 9 6 10 10 3 10 -6 0 -14 -4 -18 -9z"/>
<path d="M4691 3646 c-8 -9 -8 -16 -2 -20 5 -4 12 -2 16 4 3 5 3 10 -2 10 -4
0 -1 5 7 10 8 5 10 10 4 10 -6 0 -17 -6 -23 -14z"/>
<path d="M4730 3620 c0 -5 5 -10 11 -10 5 0 7 5 4 10 -3 6 -8 10 -11 10 -2 0
-4 -4 -4 -10z"/>
<path d="M5107 3563 c-2 -4 -1 -16 2 -26 6 -16 9 -17 19 -4 10 11 9 17 -2 26
-8 7 -16 8 -19 4z"/>
<path d="M5336 3553 c-6 -14 -5 -15 5 -6 7 7 10 15 7 18 -3 3 -9 -2 -12 -12z"/>
<path d="M4735 3540 c-3 -5 -1 -10 4 -10 6 0 11 5 11 10 0 6 -2 10 -4 10 -3 0
-8 -4 -11 -10z"/>
<path d="M5059 3528 c11 -15 41 -15 41 -1 0 3 -6 3 -14 0 -7 -3 -20 0 -27 6
-11 10 -11 9 0 -5z"/>
<path d="M4915 3480 c-3 -5 -1 -10 4 -10 6 0 11 5 11 10 0 6 -2 10 -4 10 -3 0
-8 -4 -11 -10z"/>
<path d="M4759 3433 c-13 -16 -12 -17 4 -4 16 13 21 21 13 21 -2 0 -10 -8 -17
-17z"/>
<path d="M5620 3320 c-9 -6 -10 -10 -3 -10 6 0 15 5 18 10 8 12 4 12 -15 0z"/>
<path d="M4842 3315 c4 -4 0 -14 -10 -21 -16 -12 -16 -13 0 -19 15 -6 16 -9 3
-22 -11 -10 -12 -20 -5 -32 5 -10 7 -21 3 -25 -3 -3 -7 -17 -7 -30 -1 -13 -7
-30 -14 -38 -9 -12 -9 -15 3 -15 8 0 13 3 10 5 -3 3 3 14 12 24 14 15 15 21 4
27 -9 6 -10 11 -3 15 13 8 11 46 -2 46 -5 0 -1 9 9 20 16 18 16 20 1 26 -15 6
-15 7 0 19 14 10 15 13 3 20 -8 5 -11 5 -7 0z"/>
<path d="M4726 3262 c-3 -5 1 -9 9 -9 8 0 12 4 9 9 -3 4 -7 8 -9 8 -2 0 -6 -4
-9 -8z"/>
<path d="M4690 3240 c0 -5 5 -10 10 -10 6 0 10 5 10 10 0 6 -4 10 -10 10 -5 0
-10 -4 -10 -10z"/>
<path d="M5592 3215 c-1 -14 3 -25 9 -25 5 0 8 4 5 8 -3 5 1 9 9 9 9 0 11 -4
6 -11 -12 -16 -10 -45 3 -40 6 2 11 20 12 40 0 23 -4 33 -12 30 -6 -2 -16 0
-21 5 -5 5 -9 -1 -11 -16z"/>
<path d="M4737 3175 c-4 -8 -3 -16 1 -19 4 -3 9 4 9 15 2 23 -3 25 -10 4z"/>
<path d="M4787 3179 c7 -7 15 -10 18 -7 3 3 -2 9 -12 12 -14 6 -15 5 -6 -5z"/>
<path d="M5592 3111 c4 -13 18 -16 19 -4 0 4 -5 9 -11 12 -7 2 -11 -2 -8 -8z"/>
<path d="M4685 3080 c-3 -5 1 -10 9 -10 9 0 16 5 16 10 0 6 -4 10 -9 10 -6 0
-13 -4 -16 -10z"/>
<path d="M276 3062 c-3 -5 1 -9 9 -9 8 0 12 4 9 9 -3 4 -7 8 -9 8 -2 0 -6 -4
-9 -8z"/>
<path d="M5613 3015 c-3 -9 -3 -18 -1 -21 3 -3 8 4 11 16 6 23 -1 27 -10 5z"/>
<path d="M5580 3009 c0 -6 -7 -9 -15 -5 -8 3 -15 1 -15 -4 0 -6 7 -10 16 -10
9 0 12 -5 8 -12 -4 -7 -3 -10 1 -5 10 8 18 47 10 47 -3 0 -5 -5 -5 -11z"/>
<path d="M5500 2972 c0 -12 19 -26 26 -19 2 2 -2 10 -11 17 -9 8 -15 8 -15 2z"/>
<path d="M275 2940 c-3 -5 -1 -10 4 -10 6 0 11 5 11 10 0 6 -2 10 -4 10 -3 0
-8 -4 -11 -10z"/>
<path d="M5474 2925 c-10 -8 -14 -15 -8 -15 6 0 17 7 24 15 16 19 9 19 -16 0z"/>
<path d="M276 2903 c-6 -14 -5 -15 5 -6 7 7 10 15 7 18 -3 3 -9 -2 -12 -12z"/>
<path d="M4950 2906 c14 -18 13 -19 -2 -13 -24 9 -23 0 1 -13 29 -15 34 4 8
26 -21 19 -21 19 -7 0z"/>
<path d="M300 2820 c-8 -5 -11 -12 -7 -16 4 -4 3 -12 -3 -18 -6 -8 -3 -12 9
-12 12 0 17 8 17 28 0 15 0 28 0 28 -1 0 -8 -4 -16 -10z"/>
<path d="M5057 2816 c-4 -10 -1 -13 8 -9 8 3 12 9 9 14 -7 12 -11 11 -17 -5z"/>
<path d="M4710 2799 c0 -5 5 -7 10 -4 6 3 10 8 10 11 0 2 -4 4 -10 4 -5 0 -10
-5 -10 -11z"/>
<path d="M5063 2793 c-7 -3 -13 -9 -13 -15 0 -7 5 -6 14 1 9 7 17 8 20 2 3 -5
0 -12 -6 -14 -9 -4 -10 -6 -1 -6 6 -1 14 3 17 8 8 12 -16 29 -31 24z"/>
<path d="M5357 2793 c-10 -9 -9 -23 1 -23 5 0 9 7 9 15 0 17 -1 18 -10 8z"/>
<path d="M5285 2760 c-3 -5 -1 -10 4 -10 6 0 11 5 11 10 0 6 -2 10 -4 10 -3 0
-8 -4 -11 -10z"/>
<path d="M4687 2749 c7 -7 15 -10 18 -7 3 3 -2 9 -12 12 -14 6 -15 5 -6 -5z"/>
<path d="M281 2671 c-10 -6 -9 -10 3 -14 8 -3 18 -2 21 3 8 13 -9 20 -24 11z"/>
<path d="M5073 2668 c-3 -6 -1 -8 5 -4 6 3 13 2 17 -4 3 -5 2 -10 -4 -10 -8 0
-8 -8 -2 -39 1 -2 8 2 16 9 8 7 13 21 11 33 -3 22 -32 32 -43 15z m28 -41
c-10 -9 -11 -8 -5 6 3 10 9 15 12 12 3 -3 0 -11 -7 -18z"/>
<path d="M5297 2656 c-4 -10 -1 -13 8 -9 8 3 12 9 9 14 -7 12 -11 11 -17 -5z"/>
<path d="M4681 2653 c-1 -7 -2 -16 -3 -20 -2 -3 4 -7 13 -8 9 -2 16 3 16 11 0
7 -4 11 -8 8 -4 -2 -10 2 -12 8 -4 10 -6 10 -6 1z"/>
<path d="M5068 2598 c5 -5 16 -8 23 -6 8 3 3 7 -10 11 -17 4 -21 3 -13 -5z"/>
<path d="M5084 2565 c-12 -10 -13 -13 -4 -10 11 4 16 -1 16 -15 0 -11 -5 -19
-11 -16 -7 2 -12 -2 -12 -10 0 -23 40 8 43 34 5 28 -9 35 -32 17z"/>
<path d="M5315 2571 c-3 -5 -2 -12 3 -15 5 -3 9 1 9 9 0 17 -3 19 -12 6z"/>
<path d="M4716 2393 c-6 -14 -5 -15 5 -6 7 7 10 15 7 18 -3 3 -9 -2 -12 -12z"/>
<path d="M5335 2380 c-3 -5 -1 -10 4 -10 6 0 11 5 11 10 0 6 -2 10 -4 10 -3 0
-8 -4 -11 -10z"/>
<path d="M4686 2314 c-5 -14 -4 -15 9 -4 17 14 19 20 6 20 -5 0 -12 -7 -15
-16z"/>
<path d="M4692 2291 c-11 -7 -11 -9 0 -14 9 -3 15 1 15 9 0 8 -1 14 -1 14 -1
0 -7 -4 -14 -9z"/>
<path d="M281 2194 c0 -11 3 -14 6 -6 3 7 2 16 -1 19 -3 4 -6 -2 -5 -13z"/>
<path d="M270 2161 c0 -6 4 -13 10 -16 6 -3 7 1 4 9 -7 18 -14 21 -14 7z"/>
<path d="M4685 2160 c-3 -5 -4 -10 0 -10 3 0 1 -9 -5 -20 -7 -14 -7 -20 0 -20
5 0 10 6 11 13 0 6 2 20 4 30 4 19 -1 22 -10 7z"/>
<path d="M4695 2101 c-3 -6 -10 -9 -14 -7 -3 3 -7 -4 -7 -14 0 -10 6 -16 13
-13 7 3 11 9 8 13 -3 5 1 10 7 13 7 2 10 7 7 11 -4 4 -10 2 -14 -3z"/>
<path d="M5036 1953 c-6 -14 -5 -15 5 -6 7 7 10 15 7 18 -3 3 -9 -2 -12 -12z"/>
<path d="M5020 1840 c0 -5 5 -10 11 -10 5 0 7 5 4 10 -3 6 -8 10 -11 10 -2 0
-4 -4 -4 -10z"/>
<path d="M5031 1796 c-9 -10 -9 -16 -1 -21 16 -10 31 7 21 23 -6 10 -10 10
-20 -2z"/>
<path d="M5345 1760 c-3 -5 -1 -10 4 -10 6 0 11 5 11 10 0 6 -2 10 -4 10 -3 0
-8 -4 -11 -10z"/>
<path d="M5414 1726 c1 -8 5 -18 8 -22 4 -3 5 1 4 10 -1 8 -5 18 -8 22 -4 3
-5 -1 -4 -10z"/>
<path d="M5473 1515 c0 -8 4 -12 9 -9 4 3 8 9 8 15 0 5 -4 9 -8 9 -5 0 -9 -7
-9 -15z"/>
<path d="M5480 1300 c-13 -8 -13 -10 2 -10 9 0 20 5 23 10 8 13 -5 13 -25 0z"/>
<path d="M294 1253 c0 -15 3 -20 10 -13 14 14 16 37 2 37 -7 0 -12 -11 -12
-24z"/>
<path d="M5475 1245 c0 -13 3 -21 8 -18 4 2 7 10 7 18 0 8 -3 16 -7 18 -5 3
-8 -5 -8 -18z"/>
<path d="M5450 1000 c0 -5 5 -10 10 -10 6 0 10 5 10 10 0 6 -4 10 -10 10 -5 0
-10 -4 -10 -10z"/>
<path d="M240 976 c7 -7 13 -7 20 0 6 6 3 10 -10 10 -13 0 -16 -4 -10 -10z"/>
<path d="M5123 953 c-15 -5 -17 -23 -4 -23 5 0 11 7 15 15 3 8 4 15 3 14 -1 0
-8 -3 -14 -6z"/>
<path d="M5270 951 c0 -5 7 -11 14 -14 10 -4 13 -1 9 9 -6 15 -23 19 -23 5z"/>
<path d="M236 932 c-3 -5 1 -9 9 -9 8 0 12 4 9 9 -3 4 -7 8 -9 8 -2 0 -6 -4
-9 -8z"/>
<path d="M5080 926 c0 -2 7 -7 16 -10 8 -3 12 -2 9 4 -6 10 -25 14 -25 6z"/>
<path d="M5001 861 c-28 -23 -31 -29 -17 -34 11 -4 15 -3 11 4 -8 13 25 40 42
34 7 -2 10 2 6 11 -6 17 -2 19 -42 -15z"/>
<path d="M4804 802 c-9 -5 -8 -10 2 -19 9 -9 15 -10 20 -2 8 14 -8 30 -22 21z"/>
<path d="M4845 802 c-10 -10 6 -21 22 -15 12 5 14 3 8 -7 -5 -8 -4 -11 3 -6
15 9 5 33 -13 33 -8 0 -17 -2 -20 -5z"/>
<path d="M4777 762 c-16 -17 -14 -32 4 -32 5 0 5 7 2 17 -4 10 -2 14 4 10 5
-3 10 0 10 8 0 19 -1 19 -20 -3z"/>
<path d="M4820 760 c-8 -5 -10 -10 -5 -10 6 0 17 5 25 10 8 5 11 10 5 10 -5 0
-17 -5 -25 -10z"/>
<path d="M4788 713 c7 -3 16 -2 19 1 4 3 -2 6 -13 5 -11 0 -14 -3 -6 -6z"/>
<path d="M160 679 c0 -5 5 -7 10 -4 6 3 10 8 10 11 0 2 -4 4 -10 4 -5 0 -10
-5 -10 -11z"/>
<path d="M4833 670 c-1 -11 2 -22 6 -24 4 -3 7 4 6 14 -2 27 -10 33 -12 10z"/>
<path d="M4799 540 c0 -3 -2 -13 -4 -22 -2 -10 1 -18 7 -18 7 0 7 -4 0 -13 -8
-10 -6 -13 11 -14 12 -1 17 1 12 5 -12 9 -20 46 -8 39 5 -3 15 -1 23 5 13 8
12 9 -1 5 -9 -3 -22 0 -28 6 -6 6 -11 9 -12 7z"/>
<path d="M126 402 c-3 -5 1 -9 9 -9 8 0 12 4 9 9 -3 4 -7 8 -9 8 -2 0 -6 -4
-9 -8z"/>
<path d="M210 196 c0 -2 8 -10 18 -17 15 -13 16 -12 3 4 -13 16 -21 21 -21 13z"/>
<path d="M4710 159 c0 -5 5 -7 10 -4 6 3 10 8 10 11 0 2 -4 4 -10 4 -5 0 -10
-5 -10 -11z"/>
<path d="M2957 73 c-10 -9 -9 -23 1 -23 5 0 9 7 9 15 0 17 -1 18 -10 8z"/>
<path d="M2848 59 c-17 -11 -1 -24 27 -24 14 -1 22 1 20 4 -3 2 -1 9 5 16 11
13 -32 16 -52 4z"/>
<path d="M2000 20 c-9 -6 -10 -10 -3 -10 6 0 15 5 18 10 8 12 4 12 -15 0z"/>
<path d="M2986 19 c2 -4 13 -7 24 -6 23 2 17 10 -10 12 -10 1 -17 -2 -14 -6z"/>
</g>
</svg>
